<svg width="331" height="1611" viewBox="0 0 331 1611" fill="none" xmlns="http://www.w3.org/2000/svg">
<text fill="#1C6633" xml:space="preserve" style="white-space: pre" font-family="Libre Baskerville" font-size="26" letter-spacing="-0.152213px"><tspan x="60.6201" y="87.8866">Bienvenid@ a la </tspan><tspan x="58.5127" y="119.887">Plataforma Dato </tspan><tspan x="60.2012" y="151.887">Ind&#xed;gena Loreto</tspan></text>
<text fill="#1C6633" xml:space="preserve" style="white-space: pre" font-family="Libre Baskerville" font-size="23" letter-spacing="-0.152213px"><tspan x="60.9159" y="453.337">&#xbf;Qu&#xe9; informaci&#xf3;n </tspan><tspan x="93.3396" y="482.337">encontrar&#xe1;s?</tspan></text>
<text fill="#A2A0A0" xml:space="preserve" style="white-space: pre" font-family="Roboto" font-size="16" letter-spacing="-0.152213px"><tspan x="21.1693" y="209.255">Aqu&#xed; encontrar&#xe1;s informaci&#xf3;n actualizada </tspan><tspan x="41.5934" y="231.255">sobre el avance del COVID-19 en las </tspan><tspan x="22.7983" y="253.255">comunidades nativas de Loreto. Adem&#xe1;s, </tspan><tspan x="36.3434" y="275.255">podr&#xe1;s ubicar las comunidades en un </tspan><tspan x="49.2459" y="297.255">mapa interactivo con la opci&#xf3;n de </tspan><tspan x="25.0324" y="319.255">visualizar informaci&#xf3;n b&#xe1;sica y &#xfa;til sobre </tspan><tspan x="132.429" y="341.255">cada una.</tspan></text>
<text fill="#A2A0A0" xml:space="preserve" style="white-space: pre" font-family="Roboto" font-size="16" letter-spacing="-0.152213px"><tspan x="41.8767" y="1423.26">Este es un espacio creado de forma </tspan><tspan x="37.2945" y="1445.26">colaborativo por ORPIO y la Sociedad </tspan><tspan x="30.0367" y="1467.26">Peruana de Derecho Ambiental (SPDA), </tspan><tspan x="46.0523" y="1489.26">con el objetivo de reunir en un solo </tspan><tspan x="35.2612" y="1511.26">espacio, informaci&#xf3;n real que permita </tspan><tspan x="25.7532" y="1533.26">entender mejor la situaci&#xf3;n actual de los </tspan><tspan x="50.201" y="1555.26">pueblos ind&#xed;genas en el contexto.</tspan></text>
<text fill="#1C6633" xml:space="preserve" style="white-space: pre" font-family="Roboto" font-size="16" letter-spacing="-0.152213px"><tspan x="63.1133" y="1591.76">&#xa1;Muchas gracias por su visita!</tspan></text>
<path fill-rule="evenodd" clip-rule="evenodd" d="M25.0484 645.596L25.1454 645.106L25.2425 644.615C25.8101 644.728 26.3977 644.787 27 644.787H29.509V645.287V645.787H27C26.3322 645.787 25.6796 645.721 25.0484 645.596ZM305.491 645.787V645.287V644.787H308C308.602 644.787 309.19 644.728 309.758 644.615L309.855 645.106L309.952 645.596C309.32 645.721 308.668 645.787 308 645.787H305.491ZM313.556 644.102L313.278 643.687L313 643.271C313.982 642.614 314.827 641.768 315.485 640.786L315.9 641.065L316.316 641.343C315.586 642.433 314.647 643.372 313.556 644.102ZM318 525.355H317.5H317V522.787C317 522.184 316.941 521.597 316.829 521.029L317.319 520.932L317.81 520.835C317.935 521.466 318 522.119 318 522.787V525.355ZM316.316 517.23L315.9 517.509L315.485 517.787C314.827 516.805 313.982 515.959 313 515.302L313.278 514.886L313.556 514.471C314.647 515.201 315.586 516.14 316.316 517.23ZM29.5089 512.787H27C26.3321 512.787 25.6796 512.852 25.0484 512.977L25.1454 513.467L25.2424 513.958C25.8101 513.846 26.3977 513.787 27 513.787H29.5089V513.287V512.787ZM21.4438 514.471L21.722 514.886L22.0002 515.302C21.0183 515.959 20.1727 516.805 19.5153 517.787L19.0998 517.509L18.6843 517.23C19.4144 516.14 20.3533 515.201 21.4438 514.471ZM17 633.218H17.5H18V635.787C18 636.389 18.059 636.977 18.1713 637.544L17.6808 637.641L17.1903 637.738C17.0655 637.107 17 636.454 17 635.787V633.218ZM18.6844 641.343L19.0998 641.065L19.5153 640.786C20.1727 641.768 21.0183 642.614 22.0002 643.271L21.722 643.687L21.4439 644.102C20.3533 643.372 19.4144 642.433 18.6844 641.343ZM17 628.082H17.5H18V622.946H17.5H17V628.082ZM17 617.809H17.5H18V612.673H17.5H17V617.809ZM17 607.537H17.5H18V602.4H17.5H17V607.537ZM17 597.264H17.5H18V592.128H17.5H17V597.264ZM17 586.991H17.5H18V581.855H17.5H17V586.991ZM17 576.718H17.5H18V571.582H17.5H17V576.718ZM17 566.446H17.5H18V561.309H17.5H17V566.446ZM17 556.173H17.5H18V551.037H17.5H17V556.173ZM17 545.9H17.5H18V540.764H17.5H17V545.9ZM17 535.628H17.5H18V530.491H17.5H17V535.628ZM17 525.355H17.5H18V522.787C18 522.184 18.059 521.597 18.1713 521.029L17.6808 520.932L17.1903 520.835C17.0655 521.466 17 522.119 17 522.787V525.355ZM34.5268 512.787V513.287V513.787H39.5446V513.287V512.787H34.5268ZM44.5625 512.787V513.287V513.787H49.5804V513.287V512.787H44.5625ZM54.5982 512.787V513.287V513.787H59.6161V513.287V512.787H54.5982ZM64.6339 512.787V513.287V513.787H69.6518V513.287V512.787H64.6339ZM74.6696 512.787V513.287V513.787H79.6875V513.287V512.787H74.6696ZM84.7054 512.787V513.287V513.787H89.7232V513.287V512.787H84.7054ZM94.7411 512.787V513.287V513.787H99.7589V513.287V512.787H94.7411ZM104.777 512.787V513.287V513.787H109.795V513.287V512.787H104.777ZM114.813 512.787V513.287V513.787H119.83V513.287V512.787H114.813ZM124.848 512.787V513.287V513.787H129.866V513.287V512.787H124.848ZM134.884 512.787V513.287V513.787H139.902V513.287V512.787H134.884ZM144.92 512.787V513.287V513.787H149.938V513.287V512.787H144.92ZM154.955 512.787V513.287V513.787H159.973V513.287V512.787H154.955ZM164.991 512.787V513.287V513.787H170.009V513.287V512.787H164.991ZM175.027 512.787V513.287V513.787H180.045V513.287V512.787H175.027ZM185.063 512.787V513.287V513.787H190.08V513.287V512.787H185.063ZM195.098 512.787V513.287V513.787H200.116V513.287V512.787H195.098ZM205.134 512.787V513.287V513.787H210.152V513.287V512.787H205.134ZM215.17 512.787V513.287V513.787H220.187V513.287V512.787H215.17ZM225.205 512.787V513.287V513.787H230.223V513.287V512.787H225.205ZM235.241 512.787V513.287V513.787H240.259V513.287V512.787H235.241ZM245.277 512.787V513.287V513.787H250.295V513.287V512.787H245.277ZM255.312 512.787V513.287V513.787H260.33V513.287V512.787H255.312ZM265.348 512.787V513.287V513.787H270.366V513.287V512.787H265.348ZM275.384 512.787V513.287V513.787H280.402V513.287V512.787H275.384ZM285.42 512.787V513.287V513.787H290.437V513.287V512.787H285.42ZM295.455 512.787V513.287V513.787H300.473V513.287V512.787H295.455ZM305.491 512.787V513.287V513.787H308C308.602 513.787 309.19 513.846 309.758 513.958L309.855 513.467L309.952 512.977C309.32 512.852 308.668 512.787 308 512.787H305.491ZM318 530.491H317.5H317V535.628H317.5H318V530.491ZM318 540.764H317.5H317V545.9H317.5H318V540.764ZM318 551.037H317.5H317V556.173H317.5H318V551.037ZM318 561.309H317.5H317V566.446H317.5H318V561.309ZM318 571.582H317.5H317V576.718H317.5H318V571.582ZM318 581.855H317.5H317V586.991H317.5H318V581.855ZM318 592.128H317.5H317V597.264H317.5H318V592.128ZM318 602.4H317.5H317V607.537H317.5H318V602.4ZM318 612.673H317.5H317V617.809H317.5H318V612.673ZM318 622.946H317.5H317V628.082H317.5H318V622.946ZM318 633.218H317.5H317V635.787C317 636.389 316.941 636.977 316.829 637.544L317.319 637.641L317.81 637.738C317.935 637.107 318 636.454 318 635.787V633.218ZM300.473 645.787V645.287V644.787H295.455V645.287V645.787H300.473ZM290.438 645.787V645.287V644.787H285.42V645.287V645.787H290.438ZM280.402 645.787V645.287V644.787H275.384V645.287V645.787H280.402ZM270.366 645.787V645.287V644.787H265.348V645.287V645.787H270.366ZM260.33 645.787V645.287V644.787H255.312V645.287V645.787H260.33ZM250.295 645.787V645.287V644.787H245.277V645.287V645.787H250.295ZM240.259 645.787V645.287V644.787H235.241V645.287V645.787H240.259ZM230.223 645.787V645.287V644.787H225.205V645.287V645.787H230.223ZM220.188 645.787V645.287V644.787H215.17V645.287V645.787H220.188ZM210.152 645.787V645.287V644.787H205.134V645.287V645.787H210.152ZM200.116 645.787V645.287V644.787H195.098V645.287V645.787H200.116ZM190.08 645.787V645.287V644.787H185.062V645.287V645.787H190.08ZM180.045 645.787V645.287V644.787H175.027V645.287V645.787H180.045ZM170.009 645.787V645.287V644.787H164.991V645.287V645.787H170.009ZM159.973 645.787V645.287V644.787H154.955V645.287V645.787H159.973ZM149.937 645.787V645.287V644.787H144.92V645.287V645.787H149.937ZM139.902 645.787V645.287V644.787H134.884V645.287V645.787H139.902ZM129.866 645.787V645.287V644.787H124.848V645.287V645.787H129.866ZM119.83 645.787V645.287V644.787H114.813V645.287V645.787H119.83ZM109.795 645.787V645.287V644.787H104.777V645.287V645.787H109.795ZM99.759 645.787V645.287V644.787H94.7411V645.287V645.787H99.759ZM89.7233 645.787V645.287V644.787H84.7054V645.287V645.787H89.7233ZM79.6876 645.787V645.287V644.787H74.6697V645.287V645.787H79.6876ZM69.6518 645.787V645.287V644.787H64.634V645.287V645.787H69.6518ZM59.6161 645.787V645.287V644.787H54.5983V645.287V645.787H59.6161ZM49.5804 645.787V645.287V644.787H44.5626V645.287V645.787H49.5804ZM39.5447 645.787V645.287V644.787H34.5269V645.287V645.787H39.5447Z" fill="#E58D0C"/>
<text fill="#A2A0A0" xml:space="preserve" style="white-space: pre" font-family="Roboto" font-size="14" letter-spacing="-0.152213px"><tspan x="41.9671" y="579.572">Podr&#xe1;s ubicar distritos y comunidades en </tspan><tspan x="40.2112" y="595.572">un mapa interactivo que te ofrece rese&#xf1;as </tspan><tspan x="60.071" y="611.572">con datos b&#xe1;sicos sobre la realidad </tspan><tspan x="68.5594" y="627.572">sociocultural en la regi&#xf3;n Loreto.</tspan></text>
<text fill="#E58D0C" xml:space="preserve" style="white-space: pre" font-family="Roboto" font-size="16" font-weight="bold" letter-spacing="-0.152213px"><tspan x="50.6817" y="552.755">Mapa de comunidades y distritos</tspan></text>
<path fill-rule="evenodd" clip-rule="evenodd" d="M25.0484 840.81L25.1454 840.319L25.2425 839.829C25.8101 839.941 26.3977 840 27 840H29.509V840.5V841H27C26.3322 841 25.6796 840.935 25.0484 840.81ZM305.491 841V840.5V840H308C308.602 840 309.19 839.941 309.758 839.829L309.855 840.319L309.952 840.81C309.32 840.935 308.668 841 308 841H305.491ZM313.556 839.316L313.278 838.9L313 838.485C313.982 837.827 314.827 836.982 315.485 836L315.9 836.278L316.316 836.556C315.586 837.647 314.647 838.586 313.556 839.316ZM318 672.306H317.5H317V669.787C317 669.184 316.941 668.597 316.829 668.029L317.319 667.932L317.81 667.835C317.935 668.466 318 669.119 318 669.787V672.306ZM316.316 664.23L315.9 664.509L315.485 664.787C314.827 663.805 313.982 662.959 313 662.302L313.278 661.886L313.556 661.471C314.647 662.201 315.586 663.14 316.316 664.23ZM29.5089 659.787H27C26.3321 659.787 25.6796 659.852 25.0484 659.977L25.1454 660.467L25.2424 660.958C25.8101 660.846 26.3977 660.787 27 660.787H29.5089V660.287V659.787ZM21.4438 661.471L21.722 661.886L22.0002 662.302C21.0183 662.959 20.1727 663.805 19.5153 664.787L19.0998 664.509L18.6843 664.23C19.4144 663.14 20.3533 662.201 21.4438 661.471ZM17 828.481H17.5H18V831C18 831.602 18.059 832.19 18.1713 832.758L17.6808 832.855L17.1903 832.952C17.0655 832.32 17 831.668 17 831V828.481ZM18.6844 836.556L19.0998 836.278L19.5153 836C20.1727 836.982 21.0183 837.827 22.0002 838.485L21.722 838.9L21.4439 839.316C20.3533 838.586 19.4144 837.647 18.6844 836.556ZM17 823.443H17.5H18V818.405H17.5H17V823.443ZM17 813.367H17.5H18V808.329H17.5H17V813.367ZM17 803.291H17.5H18V798.254H17.5H17V803.291ZM17 793.216H17.5H18V788.178H17.5H17V793.216ZM17 783.14H17.5H18V778.102H17.5H17V783.14ZM17 773.064H17.5H18V768.026H17.5H17V773.064ZM17 762.988H17.5H18V757.95H17.5H17V762.988ZM17 752.912H17.5H18V747.874H17.5H17V752.912ZM17 742.836H17.5H18V737.799H17.5H17V742.836ZM17 732.761H17.5H18V727.723H17.5H17V732.761ZM17 722.685H17.5H18V717.647H17.5H17V722.685ZM17 712.609H17.5H18V707.571H17.5H17V712.609ZM17 702.533H17.5H18V697.495H17.5H17V702.533ZM17 692.457H17.5H18V687.419H17.5H17V692.457ZM17 682.381H17.5H18V677.343H17.5H17V682.381ZM17 672.306H17.5H18V669.787C18 669.184 18.059 668.597 18.1713 668.029L17.6808 667.932L17.1903 667.835C17.0655 668.466 17 669.119 17 669.787V672.306ZM34.5268 659.787V660.287V660.787H39.5446V660.287V659.787H34.5268ZM44.5625 659.787V660.287V660.787H49.5804V660.287V659.787H44.5625ZM54.5982 659.787V660.287V660.787H59.6161V660.287V659.787H54.5982ZM64.6339 659.787V660.287V660.787H69.6518V660.287V659.787H64.6339ZM74.6696 659.787V660.287V660.787H79.6875V660.287V659.787H74.6696ZM84.7054 659.787V660.287V660.787H89.7232V660.287V659.787H84.7054ZM94.7411 659.787V660.287V660.787H99.7589V660.287V659.787H94.7411ZM104.777 659.787V660.287V660.787H109.795V660.287V659.787H104.777ZM114.813 659.787V660.287V660.787H119.83V660.287V659.787H114.813ZM124.848 659.787V660.287V660.787H129.866V660.287V659.787H124.848ZM134.884 659.787V660.287V660.787H139.902V660.287V659.787H134.884ZM144.92 659.787V660.287V660.787H149.938V660.287V659.787H144.92ZM154.955 659.787V660.287V660.787H159.973V660.287V659.787H154.955ZM164.991 659.787V660.287V660.787H170.009V660.287V659.787H164.991ZM175.027 659.787V660.287V660.787H180.045V660.287V659.787H175.027ZM185.063 659.787V660.287V660.787H190.08V660.287V659.787H185.063ZM195.098 659.787V660.287V660.787H200.116V660.287V659.787H195.098ZM205.134 659.787V660.287V660.787H210.152V660.287V659.787H205.134ZM215.17 659.787V660.287V660.787H220.187V660.287V659.787H215.17ZM225.205 659.787V660.287V660.787H230.223V660.287V659.787H225.205ZM235.241 659.787V660.287V660.787H240.259V660.287V659.787H235.241ZM245.277 659.787V660.287V660.787H250.295V660.287V659.787H245.277ZM255.312 659.787V660.287V660.787H260.33V660.287V659.787H255.312ZM265.348 659.787V660.287V660.787H270.366V660.287V659.787H265.348ZM275.384 659.787V660.287V660.787H280.402V660.287V659.787H275.384ZM285.42 659.787V660.287V660.787H290.437V660.287V659.787H285.42ZM295.455 659.787V660.287V660.787H300.473V660.287V659.787H295.455ZM305.491 659.787V660.287V660.787H308C308.602 660.787 309.19 660.846 309.758 660.958L309.855 660.467L309.952 659.977C309.32 659.852 308.668 659.787 308 659.787H305.491ZM318 677.343H317.5H317V682.381H317.5H318V677.343ZM318 687.419H317.5H317V692.457H317.5H318V687.419ZM318 697.495H317.5H317V702.533H317.5H318V697.495ZM318 707.571H317.5H317V712.609H317.5H318V707.571ZM318 717.647H317.5H317V722.685H317.5H318V717.647ZM318 727.723H317.5H317V732.761H317.5H318V727.723ZM318 737.799H317.5H317V742.836H317.5H318V737.799ZM318 747.874H317.5H317V752.912H317.5H318V747.874ZM318 757.95H317.5H317V762.988H317.5H318V757.95ZM318 768.026H317.5H317V773.064H317.5H318V768.026ZM318 778.102H317.5H317V783.14H317.5H318V778.102ZM318 788.178H317.5H317V793.216H317.5H318V788.178ZM318 798.254H317.5H317V803.291H317.5H318V798.254ZM318 808.329H317.5H317V813.367H317.5H318V808.329ZM318 818.405H317.5H317V823.443H317.5H318V818.405ZM318 828.481H317.5H317V831C317 831.602 316.941 832.19 316.829 832.758L317.319 832.855L317.81 832.952C317.935 832.32 318 831.668 318 831V828.481ZM300.473 841V840.5V840H295.455V840.5V841H300.473ZM290.438 841V840.5V840H285.42V840.5V841H290.438ZM280.402 841V840.5V840H275.384V840.5V841H280.402ZM270.366 841V840.5V840H265.348V840.5V841H270.366ZM260.33 841V840.5V840H255.312V840.5V841H260.33ZM250.295 841V840.5V840H245.277V840.5V841H250.295ZM240.259 841V840.5V840H235.241V840.5V841H240.259ZM230.223 841V840.5V840H225.205V840.5V841H230.223ZM220.188 841V840.5V840H215.17V840.5V841H220.188ZM210.152 841V840.5V840H205.134V840.5V841H210.152ZM200.116 841V840.5V840H195.098V840.5V841H200.116ZM190.08 841V840.5V840H185.062V840.5V841H190.08ZM180.045 841V840.5V840H175.027V840.5V841H180.045ZM170.009 841V840.5V840H164.991V840.5V841H170.009ZM159.973 841V840.5V840H154.955V840.5V841H159.973ZM149.937 841V840.5V840H144.92V840.5V841H149.937ZM139.902 841V840.5V840H134.884V840.5V841H139.902ZM129.866 841V840.5V840H124.848V840.5V841H129.866ZM119.83 841V840.5V840H114.813V840.5V841H119.83ZM109.795 841V840.5V840H104.777V840.5V841H109.795ZM99.759 841V840.5V840H94.7411V840.5V841H99.759ZM89.7233 841V840.5V840H84.7054V840.5V841H89.7233ZM79.6876 841V840.5V840H74.6697V840.5V841H79.6876ZM69.6518 841V840.5V840H64.634V840.5V841H69.6518ZM59.6161 841V840.5V840H54.5983V840.5V841H59.6161ZM49.5804 841V840.5V840H44.5626V840.5V841H49.5804ZM39.5447 841V840.5V840H34.5269V840.5V841H39.5447Z" fill="#E58D0C"/>
<text fill="#A2A0A0" xml:space="preserve" style="white-space: pre" font-family="Roboto" font-size="14" letter-spacing="-0.152213px"><tspan x="38.2639" y="734.785">Tambi&#xe9;n podr&#xe1;s visualizar &#xc1;reas Naturales </tspan><tspan x="35.3655" y="750.785">Protegidas (ANP) y propuestas de Reservas </tspan><tspan x="40.1866" y="766.785">Ind&#xed;genas. Esto te permitir&#xe1; identificar que </tspan><tspan x="47.2828" y="782.785">comunidades se encuentran aleda&#xf1;as a </tspan><tspan x="50.8862" y="798.785">espacios con alg&#xfa;n tipo de protecci&#xf3;n.&#10;</tspan></text>
<text fill="#1C6633" xml:space="preserve" style="white-space: pre" font-family="Roboto" font-size="14" font-weight="bold" letter-spacing="-0.152213px"><tspan x="80.7786" y="820.785">Link para mayor informaci&#xf3;n</tspan></text>
<text fill="#E58D0C" xml:space="preserve" style="white-space: pre" font-family="Roboto" font-size="16" font-weight="bold" letter-spacing="-0.152213px"><tspan x="95.8388" y="702.457">Espacios protegidos</tspan></text>
<rect x="16.5" y="857.287" width="302" height="527" rx="9.5" stroke="#E58D0C" stroke-dasharray="5 5"/>
<text fill="#A2A0A0" xml:space="preserve" style="white-space: pre" font-family="Roboto" font-size="14" letter-spacing="-0.152213px"><tspan x="37.9769" y="923.572">En este apartado podr&#xe1;s ver c&#xf3;mo avanza </tspan><tspan x="46.0757" y="939.572">el COVID-19 en Loreto. Adem&#xe1;s, podr&#xe1;s </tspan><tspan x="62.693" y="955.572">diferenciar el avance en territorios </tspan><tspan x="52.404" y="971.572">ocupados por poblaciones ind&#xed;genas, </tspan><tspan x="66.8405" y="987.572">desde distintas fuentes. Por ello, </tspan><tspan x="51.2223" y="1003.57">encontrar&#xe1;s los siguientes apartados:</tspan></text>
<text fill="#A2A0A0" xml:space="preserve" style="white-space: pre" font-family="Roboto" font-size="14" letter-spacing="-0.152213px"><tspan x="62" y="1066.57">Cifras de casos COVID-19 en la </tspan><tspan x="62" y="1082.57">poblaci&#xf3;n en general a nivel de la </tspan><tspan x="62" y="1098.57">regi&#xf3;n Loreto, seg&#xfa;n los reportes de la </tspan><tspan x="62" y="1114.57">Direcci&#xf3;n Regional de Salud (DIRESA).</tspan></text>
<text fill="#1C6633" xml:space="preserve" style="white-space: pre" font-family="Roboto" font-size="14" letter-spacing="-0.152213px"><tspan x="61" y="1044.79">Reporte Loreto DIRESA</tspan></text>
<circle cx="42" cy="1039.79" r="11" fill="#E58D0C"/>
<text fill="white" xml:space="preserve" style="white-space: pre" font-family="Roboto" font-size="14" font-weight="bold" letter-spacing="-0.152213px"><tspan x="38" y="1044.57">1</tspan></text>
<text fill="#A2A0A0" xml:space="preserve" style="white-space: pre" font-family="Roboto" font-size="14" letter-spacing="-0.152213px"><tspan x="62" y="1175.57">Cifras de casos COVID-19 de </tspan><tspan x="62" y="1191.57">poblaci&#xf3;n ind&#xed;gena a nivel de la regi&#xf3;n </tspan><tspan x="62" y="1207.57">Loreto, seg&#xfa;n los reportes de DIRESA.</tspan></text>
<text fill="#A2A0A0" xml:space="preserve" style="white-space: pre" font-family="Roboto" font-size="14" letter-spacing="-0.152213px"><tspan x="62" y="1265.57">Cifras de casos sospechosos </tspan><tspan x="62" y="1281.57">COVID-19 en la poblaci&#xf3;n ind&#xed;gena a </tspan><tspan x="62" y="1297.57">nivel de la regi&#xf3;n Loreto, seg&#xfa;n los </tspan><tspan x="62" y="1313.57">reportes que l&#xed;deres comunales y </tspan><tspan x="62" y="1329.57">federaciones brinda la Organizaci&#xf3;n </tspan><tspan x="62" y="1345.57">Regional de los Pueblos Ind&#xed;genas </tspan><tspan x="62" y="1361.57">del Oriente (ORPIO).</tspan></text>
<text fill="#1C6633" xml:space="preserve" style="white-space: pre" font-family="Roboto" font-size="14" letter-spacing="-0.152213px"><tspan x="61" y="1153.57">Reporte Ind&#xed;gena-DIRESA</tspan></text>
<text fill="#1C6633" xml:space="preserve" style="white-space: pre" font-family="Roboto" font-size="14" letter-spacing="-0.152213px"><tspan x="61" y="1243.57">Reporte Ind&#xed;gena-ORPIO</tspan></text>
<circle cx="42" cy="1148.79" r="11" fill="#E58D0C"/>
<text fill="white" xml:space="preserve" style="white-space: pre" font-family="Roboto" font-size="14" font-weight="bold" letter-spacing="-0.152213px"><tspan x="38" y="1153.57">2</tspan></text>
<circle cx="42" cy="1238.79" r="11" fill="#E58D0C"/>
<text fill="white" xml:space="preserve" style="white-space: pre" font-family="Roboto" font-size="14" font-weight="bold" letter-spacing="-0.152213px"><tspan x="38" y="1243.57">3</tspan></text>
<text fill="#E58D0C" xml:space="preserve" style="white-space: pre" font-family="Roboto" font-size="16" font-weight="bold" letter-spacing="-0.152213px"><tspan x="72.9536" y="895.755">L&#xed;nea de tiempo COVID-19</tspan></text>
<path d="M313.214 80.1438H283" stroke="#1C6633" stroke-width="2"/>
<path d="M53.2143 80.1438H23" stroke="#1C6633" stroke-width="2"/>
<rect x="87" y="364.787" width="162" height="36" rx="18" fill="#E58D0C"/>
<text fill="white" xml:space="preserve" style="white-space: pre" font-family="Libre Baskerville" font-size="16" letter-spacing="0px"><tspan x="124.969" y="387.387">Comenzar</tspan></text>
</svg>
