<svg width="415" height="32" viewBox="0 0 415 32" fill="none" xmlns="http://www.w3.org/2000/svg">
<rect width="415" height="32" fill="#E5E5E5"/>
<g clip-path="url(#clip0)">
<rect width="1440" height="700" transform="translate(-512 -123)" fill="#FBFBFB"/>
<path d="M87.7347 17H58" stroke="#1C6633"/>
<path d="M356.735 17H327" stroke="#1C6633"/>
<path d="M114.758 25V24.012C115.416 23.9947 115.945 23.9513 116.344 23.882C116.76 23.7953 117.08 23.648 117.306 23.44C117.531 23.2147 117.678 22.92 117.748 22.556C117.834 22.1747 117.878 21.672 117.878 21.048V8.932C117.878 8.32533 117.843 7.84 117.774 7.476C117.722 7.09467 117.6 6.8 117.41 6.592C117.236 6.36667 116.976 6.21933 116.63 6.15C116.283 6.06333 115.832 6.00267 115.278 5.968V4.98H124.404C125.964 4.98 127.402 5.24 128.72 5.76C130.054 6.28 131.198 6.99933 132.152 7.918C133.122 8.83667 133.876 9.92867 134.414 11.194C134.951 12.4593 135.22 13.8373 135.22 15.328C135.22 16.7493 134.968 18.058 134.466 19.254C133.963 20.4327 133.252 21.4467 132.334 22.296C131.432 23.1453 130.349 23.8127 129.084 24.298C127.818 24.766 126.432 25 124.924 25H114.758ZM121.05 6.254C120.755 6.254 120.608 6.40133 120.608 6.696V20.762C120.608 22.738 121.899 23.726 124.482 23.726C126.856 23.726 128.676 23.024 129.942 21.62C131.207 20.1987 131.84 18.1187 131.84 15.38C131.84 13.9413 131.666 12.6587 131.32 11.532C130.973 10.4053 130.47 9.452 129.812 8.672C129.17 7.892 128.39 7.294 127.472 6.878C126.553 6.462 125.513 6.254 124.352 6.254H121.05ZM145.492 17.304C144.504 17.6853 143.664 18.058 142.97 18.422C142.294 18.786 141.748 19.15 141.332 19.514C140.916 19.878 140.613 20.242 140.422 20.606C140.249 20.97 140.162 21.3427 140.162 21.724C140.162 22.296 140.353 22.764 140.734 23.128C141.116 23.492 141.618 23.674 142.242 23.674C142.693 23.674 143.109 23.5613 143.49 23.336C143.889 23.1107 144.236 22.8073 144.53 22.426C144.825 22.0273 145.059 21.568 145.232 21.048C145.406 20.5107 145.492 19.9473 145.492 19.358V17.304ZM145.492 16.186V15.12C145.492 13.0053 144.591 11.948 142.788 11.948C142.494 11.948 142.242 11.974 142.034 12.026C141.826 12.078 141.653 12.1647 141.514 12.286C141.376 12.4073 141.246 12.5807 141.124 12.806C141.02 13.0313 140.916 13.3087 140.812 13.638C140.622 14.1407 140.431 14.4787 140.24 14.652C140.067 14.808 139.807 14.886 139.46 14.886C138.594 14.886 138.16 14.4527 138.16 13.586C138.16 12.754 138.602 12.1127 139.486 11.662C140.37 11.194 141.627 10.96 143.256 10.96C144.99 10.96 146.22 11.272 146.948 11.896C147.676 12.5027 148.04 13.5427 148.04 15.016V20.84C148.04 22.816 148.43 23.804 149.21 23.804C149.453 23.804 149.687 23.778 149.912 23.726C150.138 23.6567 150.328 23.492 150.484 23.232L150.848 23.856C150.64 24.2547 150.259 24.5927 149.704 24.87C149.15 25.13 148.569 25.26 147.962 25.26C147.2 25.26 146.628 25.0173 146.246 24.532C145.882 24.0467 145.7 23.362 145.7 22.478H145.57C145.12 23.3273 144.496 24.0033 143.698 24.506C142.901 24.9913 142.017 25.234 141.046 25.234C139.954 25.234 139.096 24.9567 138.472 24.402C137.848 23.8473 137.536 23.102 137.536 22.166C137.536 21.75 137.606 21.3513 137.744 20.97C137.9 20.5887 138.143 20.2247 138.472 19.878C138.802 19.5313 139.235 19.1933 139.772 18.864C140.31 18.5173 140.968 18.1707 141.748 17.824L145.492 16.186ZM151.703 12.858V11.896C152.621 11.3587 153.341 10.8213 153.861 10.284C154.381 9.74667 154.779 9.10533 155.057 8.36H155.811V11.636H159.295V12.858H155.811V20.762C155.811 21.3687 155.837 21.88 155.889 22.296C155.958 22.712 156.062 23.05 156.201 23.31C156.339 23.5527 156.521 23.726 156.747 23.83C156.972 23.934 157.258 23.986 157.605 23.986C158.038 23.986 158.402 23.8993 158.697 23.726C159.009 23.5353 159.312 23.2233 159.607 22.79L160.257 23.284C160.014 23.9253 159.589 24.4193 158.983 24.766C158.393 25.0953 157.657 25.26 156.773 25.26C155.629 25.26 154.753 24.9913 154.147 24.454C153.557 23.8993 153.263 23.1107 153.263 22.088V12.858H151.703ZM168.787 10.96C169.775 10.96 170.711 11.142 171.595 11.506C172.479 11.8527 173.25 12.338 173.909 12.962C174.585 13.586 175.113 14.3313 175.495 15.198C175.893 16.0473 176.093 16.9833 176.093 18.006C176.093 19.0633 175.893 20.034 175.495 20.918C175.113 21.802 174.585 22.5647 173.909 23.206C173.25 23.8473 172.479 24.35 171.595 24.714C170.711 25.078 169.775 25.26 168.787 25.26C167.816 25.26 166.889 25.0867 166.005 24.74C165.138 24.376 164.375 23.8733 163.717 23.232C163.058 22.5907 162.538 21.828 162.157 20.944C161.775 20.0427 161.585 19.0633 161.585 18.006C161.585 16.9833 161.775 16.0387 162.157 15.172C162.538 14.3053 163.058 13.56 163.717 12.936C164.375 12.312 165.138 11.8267 166.005 11.48C166.889 11.1333 167.816 10.96 168.787 10.96ZM168.787 12.208C168.145 12.208 167.556 12.3467 167.019 12.624C166.499 12.9013 166.048 13.3 165.667 13.82C165.303 14.3227 165.017 14.938 164.809 15.666C164.618 16.3767 164.523 17.1653 164.523 18.032C164.523 18.9333 164.618 19.748 164.809 20.476C165.017 21.204 165.303 21.828 165.667 22.348C166.048 22.8507 166.499 23.2407 167.019 23.518C167.539 23.7953 168.128 23.934 168.787 23.934C169.445 23.934 170.043 23.7953 170.581 23.518C171.118 23.2407 171.577 22.842 171.959 22.322C172.34 21.802 172.635 21.178 172.843 20.45C173.051 19.722 173.155 18.916 173.155 18.032C173.155 17.1653 173.051 16.3767 172.843 15.666C172.635 14.9553 172.34 14.3487 171.959 13.846C171.577 13.326 171.118 12.9273 170.581 12.65C170.043 12.3553 169.445 12.208 168.787 12.208ZM191.269 20.086C191.269 20.9527 191.303 21.6373 191.373 22.14C191.442 22.6427 191.572 23.0327 191.763 23.31C191.971 23.5873 192.257 23.7693 192.621 23.856C193.002 23.9427 193.496 23.9947 194.103 24.012V25H185.679V24.012C186.285 23.9947 186.771 23.9427 187.135 23.856C187.516 23.752 187.811 23.57 188.019 23.31C188.227 23.05 188.365 22.686 188.435 22.218C188.504 21.7327 188.539 21.0827 188.539 20.268V9.712C188.539 8.984 188.504 8.386 188.435 7.918C188.383 7.43267 188.261 7.05133 188.071 6.774C187.897 6.49667 187.637 6.306 187.291 6.202C186.944 6.08067 186.493 6.00267 185.939 5.968V4.98H193.843V5.968C193.288 5.98533 192.837 6.05467 192.491 6.176C192.161 6.29733 191.901 6.50533 191.711 6.8C191.537 7.07733 191.416 7.46733 191.347 7.97C191.295 8.47267 191.269 9.114 191.269 9.894V20.086ZM200.763 20.918C200.763 21.6287 200.781 22.192 200.815 22.608C200.85 23.0067 200.937 23.3187 201.075 23.544C201.231 23.752 201.448 23.8907 201.725 23.96C202.02 24.0293 202.419 24.0813 202.921 24.116V25H196.109V24.116C196.595 24.0813 196.976 24.0293 197.253 23.96C197.548 23.8907 197.773 23.752 197.929 23.544C198.085 23.336 198.181 23.0413 198.215 22.66C198.267 22.2787 198.293 21.7587 198.293 21.1V17.642C198.293 15.5793 198.241 14.3227 198.137 13.872C198.085 13.6467 198.016 13.4647 197.929 13.326C197.86 13.17 197.747 13.0573 197.591 12.988C197.435 12.9013 197.236 12.8493 196.993 12.832C196.751 12.7973 196.439 12.78 196.057 12.78V11.948L200.217 10.96L200.529 13.534H200.633C201.292 12.7193 202.063 12.0867 202.947 11.636C203.831 11.1853 204.793 10.96 205.833 10.96C206.631 10.96 207.359 11.09 208.017 11.35C208.676 11.61 209.179 11.9653 209.525 12.416C209.82 12.8147 210.028 13.3347 210.149 13.976C210.271 14.6 210.331 15.4667 210.331 16.576V20.918C210.331 21.6287 210.349 22.192 210.383 22.608C210.435 23.0067 210.531 23.3187 210.669 23.544C210.808 23.752 211.016 23.8907 211.293 23.96C211.588 24.0293 211.969 24.0813 212.437 24.116V25H205.703V24.116C206.189 24.0987 206.57 24.0553 206.847 23.986C207.142 23.8993 207.359 23.752 207.497 23.544C207.653 23.336 207.749 23.0413 207.783 22.66C207.835 22.2613 207.861 21.7413 207.861 21.1V17.668C207.861 16.68 207.809 15.848 207.705 15.172C207.601 14.496 207.428 13.95 207.185 13.534C206.96 13.118 206.657 12.8233 206.275 12.65C205.894 12.4593 205.435 12.364 204.897 12.364C204.117 12.364 203.398 12.572 202.739 12.988C202.098 13.3867 201.595 13.9413 201.231 14.652C201.145 14.8253 201.067 14.99 200.997 15.146C200.945 15.302 200.902 15.484 200.867 15.692C200.833 15.9 200.807 16.1427 200.789 16.42C200.772 16.68 200.763 17.018 200.763 17.434V20.918ZM225.505 22.816H225.401C224.777 23.7 224.11 24.3327 223.399 24.714C222.706 25.078 221.882 25.26 220.929 25.26C219.941 25.26 219.031 25.0867 218.199 24.74C217.384 24.376 216.674 23.882 216.067 23.258C215.478 22.6167 215.01 21.854 214.663 20.97C214.334 20.086 214.169 19.124 214.169 18.084C214.169 17.0613 214.334 16.1167 214.663 15.25C215.01 14.366 215.478 13.612 216.067 12.988C216.674 12.3467 217.393 11.8527 218.225 11.506C219.057 11.142 219.958 10.96 220.929 10.96C221.761 10.96 222.498 11.0987 223.139 11.376C223.798 11.6533 224.43 12.0953 225.037 12.702V10.05C225.037 9.062 225.02 8.23867 224.985 7.58C224.968 6.92133 224.933 6.47067 224.881 6.228C224.794 5.84667 224.552 5.578 224.153 5.422C223.754 5.266 223.104 5.188 222.203 5.188V4.408L227.533 3.42V18.422C227.533 19.618 227.542 20.606 227.559 21.386C227.576 22.1487 227.628 22.6947 227.715 23.024C227.767 23.232 227.828 23.4053 227.897 23.544C227.984 23.6827 228.096 23.7953 228.235 23.882C228.391 23.9513 228.59 24.0033 228.833 24.038C229.093 24.0727 229.422 24.09 229.821 24.09V24.974L225.505 25.26V22.816ZM224.985 17.07C224.985 16.1687 224.933 15.484 224.829 15.016C224.742 14.548 224.56 14.1407 224.283 13.794C223.884 13.274 223.373 12.884 222.749 12.624C222.142 12.3467 221.536 12.208 220.929 12.208C219.681 12.208 218.728 12.728 218.069 13.768C217.428 14.7907 217.107 16.186 217.107 17.954C217.107 18.8727 217.185 19.7047 217.341 20.45C217.514 21.1953 217.757 21.8367 218.069 22.374C218.398 22.894 218.797 23.3013 219.265 23.596C219.75 23.8733 220.305 24.012 220.929 24.012C221.241 24.012 221.553 23.9773 221.865 23.908C222.194 23.8387 222.506 23.7347 222.801 23.596C223.113 23.44 223.399 23.2667 223.659 23.076C223.919 22.868 224.136 22.634 224.309 22.374C224.552 21.9927 224.725 21.5333 224.829 20.996C224.933 20.4587 224.985 19.722 224.985 18.786V17.07ZM236.242 20.788C236.242 21.464 236.268 22.01 236.32 22.426C236.389 22.842 236.51 23.1713 236.684 23.414C236.857 23.6393 237.1 23.7953 237.412 23.882C237.724 23.9687 238.14 24.0207 238.66 24.038V25H231.198V24.038C231.718 24.0207 232.142 23.9687 232.472 23.882C232.801 23.778 233.052 23.622 233.226 23.414C233.416 23.1887 233.538 22.8853 233.59 22.504C233.659 22.1053 233.694 21.6027 233.694 20.996V17.772C233.694 16.7667 233.676 15.9433 233.642 15.302C233.624 14.6607 233.581 14.2187 233.512 13.976C233.425 13.56 233.226 13.2827 232.914 13.144C232.602 12.988 232.012 12.91 231.146 12.91V11.948L236.242 10.96V20.788ZM232.654 8.074L236.034 4.98C236.658 4.408 237.238 4.122 237.776 4.122C238.07 4.122 238.304 4.2 238.478 4.356C238.668 4.512 238.764 4.73733 238.764 5.032C238.764 5.30933 238.642 5.56067 238.4 5.786C238.174 5.994 237.854 6.19333 237.438 6.384L233.876 8.074H232.654ZM246.147 19.41C246.875 19.41 247.438 19.0807 247.837 18.422C248.253 17.7633 248.461 16.836 248.461 15.64C248.461 14.4613 248.253 13.5513 247.837 12.91C247.438 12.2513 246.866 11.922 246.121 11.922C245.376 11.922 244.778 12.2513 244.327 12.91C243.894 13.5687 243.677 14.47 243.677 15.614C243.677 16.758 243.902 17.6767 244.353 18.37C244.804 19.0633 245.402 19.41 246.147 19.41ZM244.717 22.452C245.133 22.4867 245.514 22.5213 245.861 22.556C246.208 22.5907 246.546 22.6253 246.875 22.66C247.222 22.6947 247.56 22.738 247.889 22.79C248.236 22.842 248.608 22.894 249.007 22.946C250.255 23.1367 251.252 23.622 251.997 24.402C252.76 25.1647 253.141 26.1267 253.141 27.288C253.141 28.744 252.56 29.8533 251.399 30.616C250.255 31.3787 248.591 31.76 246.407 31.76C245.436 31.76 244.544 31.6733 243.729 31.5C242.932 31.3267 242.247 31.0753 241.675 30.746C241.103 30.434 240.652 30.0527 240.323 29.602C240.011 29.1513 239.855 28.6573 239.855 28.12C239.855 27.756 239.916 27.418 240.037 27.106C240.158 26.794 240.323 26.5167 240.531 26.274C240.739 26.0487 240.982 25.8667 241.259 25.728C241.554 25.5893 241.857 25.52 242.169 25.52C242.758 25.52 243.287 25.702 243.755 26.066C243.287 26.17 242.906 26.4213 242.611 26.82C242.316 27.236 242.169 27.704 242.169 28.224C242.169 28.9867 242.542 29.576 243.287 29.992C244.05 30.408 245.124 30.616 246.511 30.616C249.475 30.616 250.957 29.706 250.957 27.886C250.957 27.1927 250.723 26.612 250.255 26.144C249.787 25.6933 249.232 25.4247 248.591 25.338C248.175 25.286 247.742 25.2253 247.291 25.156C246.858 25.104 246.424 25.052 245.991 25C245.575 24.948 245.185 24.9047 244.821 24.87C244.457 24.8353 244.162 24.8007 243.937 24.766C242.966 24.662 242.23 24.402 241.727 23.986C241.224 23.57 240.973 22.998 240.973 22.27C240.973 21.6633 241.224 21.126 241.727 20.658C242.23 20.19 242.862 19.8953 243.625 19.774V19.67C243.244 19.514 242.888 19.2973 242.559 19.02C242.23 18.7253 241.944 18.396 241.701 18.032C241.476 17.668 241.294 17.278 241.155 16.862C241.016 16.4287 240.947 15.9867 240.947 15.536C240.947 14.8773 241.068 14.2707 241.311 13.716C241.571 13.1613 241.926 12.6847 242.377 12.286C242.845 11.87 243.391 11.5493 244.015 11.324C244.639 11.0813 245.324 10.96 246.069 10.96C246.832 10.96 247.551 11.0813 248.227 11.324C248.903 11.5493 249.484 11.8873 249.969 12.338C250.558 11.8527 251.078 11.506 251.529 11.298C251.98 11.0727 252.404 10.96 252.803 10.96C253.427 10.96 253.921 11.1073 254.285 11.402C254.666 11.6793 254.857 12.0607 254.857 12.546C254.857 12.8407 254.753 13.0747 254.545 13.248C254.354 13.4213 254.112 13.508 253.817 13.508C253.574 13.508 253.375 13.4647 253.219 13.378C253.063 13.2913 252.916 13.2047 252.777 13.118C252.656 13.014 252.526 12.9187 252.387 12.832C252.248 12.7453 252.075 12.702 251.867 12.702C251.451 12.702 251.026 12.8493 250.593 13.144C251.009 13.7853 251.217 14.5913 251.217 15.562C251.217 17.0353 250.758 18.1967 249.839 19.046C248.92 19.878 247.542 20.3633 245.705 20.502C244.648 20.5887 243.911 20.7013 243.495 20.84C243.079 20.9787 242.871 21.23 242.871 21.594C242.871 21.8713 243.027 22.0793 243.339 22.218C243.651 22.3393 244.11 22.4173 244.717 22.452ZM267.88 22.582C266.407 24.3673 264.578 25.26 262.394 25.26C261.371 25.26 260.444 25.0953 259.612 24.766C258.78 24.4193 258.061 23.9427 257.454 23.336C256.865 22.712 256.405 21.9753 256.076 21.126C255.747 20.2593 255.582 19.306 255.582 18.266C255.582 17.2087 255.755 16.2293 256.102 15.328C256.449 14.4267 256.934 13.6553 257.558 13.014C258.199 12.3727 258.953 11.87 259.82 11.506C260.704 11.142 261.666 10.96 262.706 10.96C264.387 10.96 265.687 11.4193 266.606 12.338C267.525 13.2393 267.984 14.5393 267.984 16.238C267.984 16.4807 267.932 16.628 267.828 16.68C267.741 16.732 267.525 16.758 267.178 16.758H258.624C258.589 16.8967 258.563 17.07 258.546 17.278C258.529 17.4687 258.52 17.6853 258.52 17.928C258.52 18.8293 258.624 19.6527 258.832 20.398C259.057 21.126 259.369 21.75 259.768 22.27C260.184 22.79 260.669 23.1973 261.224 23.492C261.796 23.7693 262.429 23.908 263.122 23.908C263.85 23.908 264.526 23.752 265.15 23.44C265.774 23.1107 266.415 22.582 267.074 21.854L267.88 22.582ZM263.59 15.562C263.937 15.562 264.214 15.5533 264.422 15.536C264.63 15.5187 264.786 15.484 264.89 15.432C264.994 15.38 265.063 15.3107 265.098 15.224C265.133 15.12 265.15 14.99 265.15 14.834C265.15 14.0367 264.89 13.404 264.37 12.936C263.867 12.4507 263.174 12.208 262.29 12.208C260.418 12.208 259.257 13.326 258.806 15.562H263.59ZM274.676 20.918C274.676 21.6287 274.694 22.192 274.728 22.608C274.763 23.0067 274.85 23.3187 274.988 23.544C275.144 23.752 275.361 23.8907 275.638 23.96C275.933 24.0293 276.332 24.0813 276.834 24.116V25H270.022V24.116C270.508 24.0813 270.889 24.0293 271.166 23.96C271.461 23.8907 271.686 23.752 271.842 23.544C271.998 23.336 272.094 23.0413 272.128 22.66C272.18 22.2787 272.206 21.7587 272.206 21.1V17.642C272.206 15.5793 272.154 14.3227 272.05 13.872C271.998 13.6467 271.929 13.4647 271.842 13.326C271.773 13.17 271.66 13.0573 271.504 12.988C271.348 12.9013 271.149 12.8493 270.906 12.832C270.664 12.7973 270.352 12.78 269.97 12.78V11.948L274.13 10.96L274.442 13.534H274.546C275.205 12.7193 275.976 12.0867 276.86 11.636C277.744 11.1853 278.706 10.96 279.746 10.96C280.544 10.96 281.272 11.09 281.93 11.35C282.589 11.61 283.092 11.9653 283.438 12.416C283.733 12.8147 283.941 13.3347 284.062 13.976C284.184 14.6 284.244 15.4667 284.244 16.576V20.918C284.244 21.6287 284.262 22.192 284.296 22.608C284.348 23.0067 284.444 23.3187 284.582 23.544C284.721 23.752 284.929 23.8907 285.206 23.96C285.501 24.0293 285.882 24.0813 286.35 24.116V25H279.616V24.116C280.102 24.0987 280.483 24.0553 280.76 23.986C281.055 23.8993 281.272 23.752 281.41 23.544C281.566 23.336 281.662 23.0413 281.696 22.66C281.748 22.2613 281.774 21.7413 281.774 21.1V17.668C281.774 16.68 281.722 15.848 281.618 15.172C281.514 14.496 281.341 13.95 281.098 13.534C280.873 13.118 280.57 12.8233 280.188 12.65C279.807 12.4593 279.348 12.364 278.81 12.364C278.03 12.364 277.311 12.572 276.652 12.988C276.011 13.3867 275.508 13.9413 275.144 14.652C275.058 14.8253 274.98 14.99 274.91 15.146C274.858 15.302 274.815 15.484 274.78 15.692C274.746 15.9 274.72 16.1427 274.702 16.42C274.685 16.68 274.676 17.018 274.676 17.434V20.918ZM295.908 17.304C294.92 17.6853 294.079 18.058 293.386 18.422C292.71 18.786 292.164 19.15 291.748 19.514C291.332 19.878 291.028 20.242 290.838 20.606C290.664 20.97 290.578 21.3427 290.578 21.724C290.578 22.296 290.768 22.764 291.15 23.128C291.531 23.492 292.034 23.674 292.658 23.674C293.108 23.674 293.524 23.5613 293.906 23.336C294.304 23.1107 294.651 22.8073 294.946 22.426C295.24 22.0273 295.474 21.568 295.648 21.048C295.821 20.5107 295.908 19.9473 295.908 19.358V17.304ZM295.908 16.186V15.12C295.908 13.0053 295.006 11.948 293.204 11.948C292.909 11.948 292.658 11.974 292.45 12.026C292.242 12.078 292.068 12.1647 291.93 12.286C291.791 12.4073 291.661 12.5807 291.54 12.806C291.436 13.0313 291.332 13.3087 291.228 13.638C291.037 14.1407 290.846 14.4787 290.656 14.652C290.482 14.808 290.222 14.886 289.876 14.886C289.009 14.886 288.576 14.4527 288.576 13.586C288.576 12.754 289.018 12.1127 289.902 11.662C290.786 11.194 292.042 10.96 293.672 10.96C295.405 10.96 296.636 11.272 297.364 11.896C298.092 12.5027 298.456 13.5427 298.456 15.016V20.84C298.456 22.816 298.846 23.804 299.626 23.804C299.868 23.804 300.102 23.778 300.328 23.726C300.553 23.6567 300.744 23.492 300.9 23.232L301.264 23.856C301.056 24.2547 300.674 24.5927 300.12 24.87C299.565 25.13 298.984 25.26 298.378 25.26C297.615 25.26 297.043 25.0173 296.662 24.532C296.298 24.0467 296.116 23.362 296.116 22.478H295.986C295.535 23.3273 294.911 24.0033 294.114 24.506C293.316 24.9913 292.432 25.234 291.462 25.234C290.37 25.234 289.512 24.9567 288.888 24.402C288.264 23.8473 287.952 23.102 287.952 22.166C287.952 21.75 288.021 21.3513 288.16 20.97C288.316 20.5887 288.558 20.2247 288.888 19.878C289.217 19.5313 289.65 19.1933 290.188 18.864C290.725 18.5173 291.384 18.1707 292.164 17.824L295.908 16.186Z" fill="#1C6633"/>
</g>
<defs>
<clipPath id="clip0">
<rect width="1440" height="700" fill="white" transform="translate(-512 -123)"/>
</clipPath>
</defs>
</svg>
