<svg width="173" height="68" viewBox="0 0 173 68" fill="none" xmlns="http://www.w3.org/2000/svg">
<g filter="url(#filter0_d)">
<path fill-rule="evenodd" clip-rule="evenodd" d="M9 0C6.23858 0 4 2.23858 4 5V59C4 61.7614 6.23857 64 9 64H158C160.761 64 163 61.7614 163 59V43.3137L163.192 43.5505L172.385 32.2368L163.192 20.9231L163 21.1599V5C163 2.23858 160.761 0 158 0H9Z" fill="white"/>
</g>
<path d="M27.896 16.076C27.896 16.5 27.828 16.88 27.692 17.216C27.556 17.552 27.34 17.836 27.044 18.068C26.756 18.3 26.376 18.48 25.904 18.608C25.44 18.736 24.872 18.8 24.2 18.8H23.12V21.116C23.12 21.412 23.136 21.656 23.168 21.848C23.208 22.032 23.284 22.176 23.396 22.28C23.516 22.384 23.684 22.456 23.9 22.496C24.124 22.528 24.416 22.544 24.776 22.544V23H20.54V22.544C20.82 22.536 21.044 22.512 21.212 22.472C21.388 22.432 21.524 22.364 21.62 22.268C21.716 22.172 21.78 22.036 21.812 21.86C21.844 21.684 21.86 21.456 21.86 21.176V15.584C21.86 15.304 21.844 15.08 21.812 14.912C21.788 14.736 21.732 14.6 21.644 14.504C21.564 14.4 21.444 14.332 21.284 14.3C21.124 14.26 20.916 14.232 20.66 14.216V13.76H24.428C25.532 13.76 26.384 13.964 26.984 14.372C27.592 14.78 27.896 15.348 27.896 16.076ZM23.12 18.2H23.972C24.772 18.2 25.364 18.048 25.748 17.744C26.14 17.432 26.336 16.924 26.336 16.22C26.336 15.54 26.18 15.056 25.868 14.768C25.564 14.472 25.084 14.324 24.428 14.324H23.324C23.188 14.324 23.12 14.392 23.12 14.528V18.2ZM32.2857 19.448C31.8297 19.624 31.4417 19.796 31.1217 19.964C30.8097 20.132 30.5577 20.3 30.3657 20.468C30.1737 20.636 30.0337 20.804 29.9457 20.972C29.8657 21.14 29.8257 21.312 29.8257 21.488C29.8257 21.752 29.9137 21.968 30.0897 22.136C30.2657 22.304 30.4977 22.388 30.7857 22.388C30.9937 22.388 31.1857 22.336 31.3617 22.232C31.5457 22.128 31.7057 21.988 31.8417 21.812C31.9777 21.628 32.0857 21.416 32.1657 21.176C32.2457 20.928 32.2857 20.668 32.2857 20.396V19.448ZM32.2857 18.932V18.44C32.2857 17.464 31.8697 16.976 31.0377 16.976C30.9017 16.976 30.7857 16.988 30.6897 17.012C30.5937 17.036 30.5137 17.076 30.4497 17.132C30.3857 17.188 30.3257 17.268 30.2697 17.372C30.2217 17.476 30.1737 17.604 30.1257 17.756C30.0377 17.988 29.9497 18.144 29.8617 18.224C29.7817 18.296 29.6617 18.332 29.5017 18.332C29.1017 18.332 28.9017 18.132 28.9017 17.732C28.9017 17.348 29.1057 17.052 29.5137 16.844C29.9217 16.628 30.5017 16.52 31.2537 16.52C32.0537 16.52 32.6217 16.664 32.9577 16.952C33.2937 17.232 33.4617 17.712 33.4617 18.392V21.08C33.4617 21.992 33.6417 22.448 34.0017 22.448C34.1137 22.448 34.2217 22.436 34.3257 22.412C34.4297 22.38 34.5177 22.304 34.5897 22.184L34.7577 22.472C34.6617 22.656 34.4857 22.812 34.2297 22.94C33.9737 23.06 33.7057 23.12 33.4257 23.12C33.0737 23.12 32.8097 23.008 32.6337 22.784C32.4657 22.56 32.3817 22.244 32.3817 21.836H32.3217C32.1137 22.228 31.8257 22.54 31.4577 22.772C31.0897 22.996 30.6817 23.108 30.2337 23.108C29.7297 23.108 29.3337 22.98 29.0457 22.724C28.7577 22.468 28.6137 22.124 28.6137 21.692C28.6137 21.5 28.6457 21.316 28.7097 21.14C28.7817 20.964 28.8937 20.796 29.0457 20.636C29.1977 20.476 29.3977 20.32 29.6457 20.168C29.8937 20.008 30.1977 19.848 30.5577 19.688L32.2857 18.932ZM35.7742 23H35.5102V20.936H35.8102C36.1222 22.064 36.6902 22.628 37.5142 22.628C37.8342 22.628 38.0862 22.552 38.2702 22.4C38.4622 22.24 38.5582 22 38.5582 21.68C38.5582 21.56 38.5382 21.46 38.4982 21.38C38.4662 21.292 38.3982 21.204 38.2942 21.116C38.1982 21.02 38.0582 20.912 37.8742 20.792C37.6982 20.672 37.4622 20.52 37.1662 20.336C36.8942 20.168 36.6582 20.012 36.4582 19.868C36.2582 19.724 36.0902 19.58 35.9542 19.436C35.8182 19.284 35.7142 19.124 35.6422 18.956C35.5782 18.788 35.5462 18.592 35.5462 18.368C35.5462 18.096 35.5902 17.848 35.6782 17.624C35.7742 17.392 35.9022 17.196 36.0622 17.036C36.2222 16.876 36.4102 16.752 36.6262 16.664C36.8422 16.568 37.0782 16.52 37.3342 16.52C37.5502 16.52 37.7742 16.556 38.0062 16.628C38.2382 16.692 38.4422 16.78 38.6182 16.892L38.8582 16.64H39.0862V18.368H38.7742C38.5982 17.88 38.4062 17.532 38.1982 17.324C37.9902 17.116 37.7342 17.012 37.4302 17.012C37.1582 17.012 36.9382 17.084 36.7702 17.228C36.6102 17.372 36.5302 17.572 36.5302 17.828C36.5302 17.964 36.5502 18.084 36.5902 18.188C36.6382 18.284 36.7102 18.38 36.8062 18.476C36.9022 18.572 37.0222 18.672 37.1662 18.776C37.3182 18.872 37.4982 18.984 37.7062 19.112C38.0502 19.328 38.3422 19.52 38.5822 19.688C38.8302 19.856 39.0302 20.024 39.1822 20.192C39.3342 20.352 39.4462 20.52 39.5182 20.696C39.5902 20.872 39.6262 21.072 39.6262 21.296C39.6262 21.864 39.4422 22.312 39.0742 22.64C38.7062 22.96 38.2222 23.12 37.6222 23.12C36.9982 23.12 36.4622 22.94 36.0142 22.58L35.7742 23ZM44.0914 16.52C44.5474 16.52 44.9794 16.604 45.3874 16.772C45.7954 16.932 46.1514 17.156 46.4554 17.444C46.7674 17.732 47.0114 18.076 47.1874 18.476C47.3714 18.868 47.4634 19.3 47.4634 19.772C47.4634 20.26 47.3714 20.708 47.1874 21.116C47.0114 21.524 46.7674 21.876 46.4554 22.172C46.1514 22.468 45.7954 22.7 45.3874 22.868C44.9794 23.036 44.5474 23.12 44.0914 23.12C43.6434 23.12 43.2154 23.04 42.8074 22.88C42.4074 22.712 42.0554 22.48 41.7514 22.184C41.4474 21.888 41.2074 21.536 41.0314 21.128C40.8554 20.712 40.7674 20.26 40.7674 19.772C40.7674 19.3 40.8554 18.864 41.0314 18.464C41.2074 18.064 41.4474 17.72 41.7514 17.432C42.0554 17.144 42.4074 16.92 42.8074 16.76C43.2154 16.6 43.6434 16.52 44.0914 16.52ZM44.0914 17.096C43.7954 17.096 43.5234 17.16 43.2754 17.288C43.0354 17.416 42.8274 17.6 42.6514 17.84C42.4834 18.072 42.3514 18.356 42.2554 18.692C42.1674 19.02 42.1234 19.384 42.1234 19.784C42.1234 20.2 42.1674 20.576 42.2554 20.912C42.3514 21.248 42.4834 21.536 42.6514 21.776C42.8274 22.008 43.0354 22.188 43.2754 22.316C43.5154 22.444 43.7874 22.508 44.0914 22.508C44.3954 22.508 44.6714 22.444 44.9194 22.316C45.1674 22.188 45.3794 22.004 45.5554 21.764C45.7314 21.524 45.8674 21.236 45.9634 20.9C46.0594 20.564 46.1074 20.192 46.1074 19.784C46.1074 19.384 46.0594 19.02 45.9634 18.692C45.8674 18.364 45.7314 18.084 45.5554 17.852C45.3794 17.612 45.1674 17.428 44.9194 17.3C44.6714 17.164 44.3954 17.096 44.0914 17.096ZM54.8003 21.056C54.8003 21.368 54.8123 21.62 54.8363 21.812C54.8683 21.996 54.9283 22.144 55.0163 22.256C55.1043 22.36 55.2283 22.432 55.3883 22.472C55.5563 22.512 55.7763 22.536 56.0483 22.544V23H52.3763V22.544C52.6403 22.536 52.8523 22.512 53.0123 22.472C53.1803 22.424 53.3083 22.352 53.3963 22.256C53.4923 22.152 53.5523 22.012 53.5763 21.836C53.6083 21.652 53.6243 21.42 53.6243 21.14V16.736C53.6243 16.272 53.6203 15.888 53.6123 15.584C53.6123 15.28 53.6003 15.08 53.5763 14.984C53.5363 14.808 53.4163 14.7 53.2163 14.66C53.0163 14.62 52.7163 14.6 52.3163 14.6V14.144C52.7083 14.128 53.1203 14.076 53.5523 13.988C53.9923 13.892 54.4083 13.776 54.8003 13.64V21.056Z" fill="#E58D0C"/>
<path d="M21.7627 36.2168V39H20.8252V31.8906H23.4473C24.2253 31.8906 24.834 32.0892 25.2734 32.4863C25.7161 32.8835 25.9375 33.4092 25.9375 34.0635C25.9375 34.7536 25.721 35.2858 25.2881 35.6602C24.8584 36.0312 24.2415 36.2168 23.4375 36.2168H21.7627ZM21.7627 35.4502H23.4473C23.9486 35.4502 24.3327 35.333 24.5996 35.0986C24.8665 34.861 25 34.5192 25 34.0732C25 33.6501 24.8665 33.3115 24.5996 33.0576C24.3327 32.8037 23.9665 32.6719 23.501 32.6621H21.7627V35.4502ZM30.1953 39C30.1432 38.8958 30.1009 38.7103 30.0684 38.4434C29.6484 38.8796 29.1471 39.0977 28.5645 39.0977C28.0436 39.0977 27.6156 38.9512 27.2803 38.6582C26.9482 38.362 26.7822 37.9876 26.7822 37.5352C26.7822 36.985 26.9906 36.5586 27.4072 36.2559C27.8271 35.9499 28.4163 35.7969 29.1748 35.7969H30.0537V35.3818C30.0537 35.0661 29.9593 34.8154 29.7705 34.6299C29.5817 34.4411 29.3034 34.3467 28.9355 34.3467C28.6133 34.3467 28.3431 34.4281 28.125 34.5908C27.9069 34.7536 27.7979 34.9505 27.7979 35.1816H26.8896C26.8896 34.918 26.9824 34.6641 27.168 34.4199C27.3568 34.1725 27.6107 33.9772 27.9297 33.834C28.252 33.6908 28.6051 33.6191 28.9893 33.6191C29.598 33.6191 30.0749 33.7721 30.4199 34.0781C30.765 34.3809 30.944 34.7992 30.957 35.333V37.7646C30.957 38.2497 31.0189 38.6354 31.1426 38.9219V39H30.1953ZM28.6963 38.3115C28.9795 38.3115 29.248 38.2383 29.502 38.0918C29.7559 37.9453 29.9398 37.7549 30.0537 37.5205V36.4365H29.3457C28.2389 36.4365 27.6855 36.7604 27.6855 37.4082C27.6855 37.6914 27.7799 37.9128 27.9688 38.0723C28.1576 38.2318 28.4001 38.3115 28.6963 38.3115ZM35.4492 37.5986C35.4492 37.3545 35.3564 37.1657 35.1709 37.0322C34.9886 36.8955 34.668 36.7783 34.209 36.6807C33.7533 36.583 33.3903 36.4658 33.1201 36.3291C32.8532 36.1924 32.6546 36.0296 32.5244 35.8408C32.3975 35.652 32.334 35.4274 32.334 35.167C32.334 34.734 32.5163 34.3678 32.8809 34.0684C33.2487 33.7689 33.7174 33.6191 34.2871 33.6191C34.8861 33.6191 35.3711 33.7738 35.7422 34.083C36.1165 34.3923 36.3037 34.7878 36.3037 35.2695H35.3955C35.3955 35.0221 35.2897 34.8089 35.0781 34.6299C34.8698 34.4508 34.6061 34.3613 34.2871 34.3613C33.9583 34.3613 33.7012 34.4329 33.5156 34.5762C33.3301 34.7194 33.2373 34.9066 33.2373 35.1377C33.2373 35.3558 33.3236 35.5202 33.4961 35.6309C33.6686 35.7415 33.9795 35.8473 34.4287 35.9482C34.8812 36.0492 35.2474 36.1696 35.5273 36.3096C35.8073 36.4495 36.014 36.6188 36.1475 36.8174C36.2842 37.0127 36.3525 37.252 36.3525 37.5352C36.3525 38.0072 36.1637 38.3864 35.7861 38.6729C35.4085 38.9561 34.9186 39.0977 34.3164 39.0977C33.8932 39.0977 33.5189 39.0228 33.1934 38.873C32.8678 38.7233 32.6123 38.515 32.4268 38.248C32.2445 37.9779 32.1533 37.6865 32.1533 37.374H33.0566C33.0729 37.6768 33.1934 37.9176 33.418 38.0967C33.6458 38.2725 33.9453 38.3604 34.3164 38.3604C34.6582 38.3604 34.9316 38.292 35.1367 38.1553C35.3451 38.0153 35.4492 37.8298 35.4492 37.5986ZM40.791 39C40.7389 38.8958 40.6966 38.7103 40.6641 38.4434C40.2441 38.8796 39.7428 39.0977 39.1602 39.0977C38.6393 39.0977 38.2113 38.9512 37.876 38.6582C37.5439 38.362 37.3779 37.9876 37.3779 37.5352C37.3779 36.985 37.5863 36.5586 38.0029 36.2559C38.4229 35.9499 39.012 35.7969 39.7705 35.7969H40.6494V35.3818C40.6494 35.0661 40.555 34.8154 40.3662 34.6299C40.1774 34.4411 39.8991 34.3467 39.5312 34.3467C39.209 34.3467 38.9388 34.4281 38.7207 34.5908C38.5026 34.7536 38.3936 34.9505 38.3936 35.1816H37.4854C37.4854 34.918 37.5781 34.6641 37.7637 34.4199C37.9525 34.1725 38.2064 33.9772 38.5254 33.834C38.8477 33.6908 39.2008 33.6191 39.585 33.6191C40.1937 33.6191 40.6706 33.7721 41.0156 34.0781C41.3607 34.3809 41.5397 34.7992 41.5527 35.333V37.7646C41.5527 38.2497 41.6146 38.6354 41.7383 38.9219V39H40.791ZM39.292 38.3115C39.5752 38.3115 39.8438 38.2383 40.0977 38.0918C40.3516 37.9453 40.5355 37.7549 40.6494 37.5205V36.4365H39.9414C38.8346 36.4365 38.2812 36.7604 38.2812 37.4082C38.2812 37.6914 38.3757 37.9128 38.5645 38.0723C38.7533 38.2318 38.9958 38.3115 39.292 38.3115ZM47.6416 39.0977C46.9255 39.0977 46.3428 38.8633 45.8936 38.3945C45.4443 37.9225 45.2197 37.2926 45.2197 36.5049V36.3389C45.2197 35.8148 45.319 35.3477 45.5176 34.9375C45.7194 34.5241 45.9993 34.2018 46.3574 33.9707C46.7188 33.7363 47.1094 33.6191 47.5293 33.6191C48.2161 33.6191 48.75 33.8454 49.1309 34.2979C49.5117 34.7503 49.7021 35.3981 49.7021 36.2412V36.6172H46.123C46.1361 37.138 46.2874 37.5596 46.5771 37.8818C46.8701 38.2008 47.2412 38.3604 47.6904 38.3604C48.0094 38.3604 48.2796 38.2952 48.501 38.165C48.7223 38.0348 48.916 37.8623 49.082 37.6475L49.6338 38.0771C49.1911 38.7575 48.527 39.0977 47.6416 39.0977ZM47.5293 34.3613C47.1647 34.3613 46.8587 34.4948 46.6113 34.7617C46.3639 35.0254 46.2109 35.3965 46.1523 35.875H48.7988V35.8066C48.7728 35.3477 48.6491 34.9928 48.4277 34.7422C48.2064 34.4883 47.9069 34.3613 47.5293 34.3613ZM51.7334 39H50.8301V31.5H51.7334V39ZM57.7832 38.3604C58.1055 38.3604 58.387 38.2627 58.6279 38.0674C58.8688 37.8721 59.0023 37.6279 59.0283 37.335H59.8828C59.8665 37.6377 59.7624 37.9258 59.5703 38.1992C59.3783 38.4727 59.1211 38.6908 58.7988 38.8535C58.4798 39.0163 58.1413 39.0977 57.7832 39.0977C57.0638 39.0977 56.4909 38.8584 56.0645 38.3799C55.6413 37.8981 55.4297 37.2406 55.4297 36.4072V36.2559C55.4297 35.7415 55.5241 35.2842 55.7129 34.8838C55.9017 34.4834 56.1719 34.1725 56.5234 33.9512C56.8783 33.7298 57.2965 33.6191 57.7783 33.6191C58.3708 33.6191 58.8623 33.7965 59.2529 34.1514C59.6468 34.5062 59.8568 34.9668 59.8828 35.5332H59.0283C59.0023 35.1914 58.8721 34.9115 58.6377 34.6934C58.4066 34.472 58.1201 34.3613 57.7783 34.3613C57.3193 34.3613 56.9629 34.5273 56.709 34.8594C56.4583 35.1882 56.333 35.665 56.333 36.29V36.4609C56.333 37.0697 56.4583 37.5384 56.709 37.8672C56.9596 38.196 57.3177 38.3604 57.7832 38.3604ZM64.1602 38.4775C63.8086 38.891 63.2926 39.0977 62.6123 39.0977C62.0492 39.0977 61.6195 38.9349 61.3232 38.6094C61.0303 38.2806 60.8822 37.7956 60.8789 37.1543V33.7168H61.7822V37.1299C61.7822 37.9307 62.1077 38.3311 62.7588 38.3311C63.4489 38.3311 63.9079 38.0739 64.1357 37.5596V33.7168H65.0391V39H64.1797L64.1602 38.4775ZM68.9697 34.5273C68.833 34.5046 68.6849 34.4932 68.5254 34.4932C67.9329 34.4932 67.5309 34.7454 67.3193 35.25V39H66.416V33.7168H67.2949L67.3096 34.3271C67.6058 33.8551 68.0257 33.6191 68.5693 33.6191C68.7451 33.6191 68.8786 33.6419 68.9697 33.6875V34.5273ZM72.8809 37.5986C72.8809 37.3545 72.7881 37.1657 72.6025 37.0322C72.4202 36.8955 72.0996 36.7783 71.6406 36.6807C71.1849 36.583 70.8219 36.4658 70.5518 36.3291C70.2848 36.1924 70.0863 36.0296 69.9561 35.8408C69.8291 35.652 69.7656 35.4274 69.7656 35.167C69.7656 34.734 69.9479 34.3678 70.3125 34.0684C70.6803 33.7689 71.1491 33.6191 71.7188 33.6191C72.3177 33.6191 72.8027 33.7738 73.1738 34.083C73.5482 34.3923 73.7354 34.7878 73.7354 35.2695H72.8271C72.8271 35.0221 72.7214 34.8089 72.5098 34.6299C72.3014 34.4508 72.0378 34.3613 71.7188 34.3613C71.39 34.3613 71.1328 34.4329 70.9473 34.5762C70.7617 34.7194 70.6689 34.9066 70.6689 35.1377C70.6689 35.3558 70.7552 35.5202 70.9277 35.6309C71.1003 35.7415 71.4111 35.8473 71.8604 35.9482C72.3128 36.0492 72.679 36.1696 72.959 36.3096C73.2389 36.4495 73.4456 36.6188 73.5791 36.8174C73.7158 37.0127 73.7842 37.252 73.7842 37.5352C73.7842 38.0072 73.5954 38.3864 73.2178 38.6729C72.8402 38.9561 72.3503 39.0977 71.748 39.0977C71.3249 39.0977 70.9505 39.0228 70.625 38.873C70.2995 38.7233 70.0439 38.515 69.8584 38.248C69.6761 37.9779 69.585 37.6865 69.585 37.374H70.4883C70.5046 37.6768 70.625 37.9176 70.8496 38.0967C71.0775 38.2725 71.377 38.3604 71.748 38.3604C72.0898 38.3604 72.3633 38.292 72.5684 38.1553C72.7767 38.0153 72.8809 37.8298 72.8809 37.5986ZM74.7217 36.3096C74.7217 35.792 74.8226 35.3265 75.0244 34.9131C75.2295 34.4997 75.5127 34.1807 75.874 33.9561C76.2386 33.7314 76.6536 33.6191 77.1191 33.6191C77.8385 33.6191 78.4196 33.8682 78.8623 34.3662C79.3083 34.8643 79.5312 35.5267 79.5312 36.3535V36.417C79.5312 36.9313 79.432 37.3936 79.2334 37.8037C79.0381 38.2106 78.7565 38.528 78.3887 38.7559C78.0241 38.9837 77.6042 39.0977 77.1289 39.0977C76.4128 39.0977 75.8317 38.8486 75.3857 38.3506C74.943 37.8525 74.7217 37.1934 74.7217 36.373V36.3096ZM75.6299 36.417C75.6299 37.0029 75.765 37.4733 76.0352 37.8281C76.3086 38.1829 76.6732 38.3604 77.1289 38.3604C77.5879 38.3604 77.9525 38.1813 78.2227 37.8232C78.4928 37.4619 78.6279 36.9574 78.6279 36.3096C78.6279 35.7301 78.4896 35.2614 78.2129 34.9033C77.9395 34.542 77.5749 34.3613 77.1191 34.3613C76.6732 34.3613 76.3135 34.5387 76.04 34.8936C75.7666 35.2484 75.6299 35.7562 75.6299 36.417ZM83.2178 34.5273C83.0811 34.5046 82.9329 34.4932 82.7734 34.4932C82.181 34.4932 81.779 34.7454 81.5674 35.25V39H80.6641V33.7168H81.543L81.5576 34.3271C81.8538 33.8551 82.2738 33.6191 82.8174 33.6191C82.9932 33.6191 83.1266 33.6419 83.2178 33.6875V34.5273ZM89.6094 37.5986C89.6094 37.3545 89.5166 37.1657 89.3311 37.0322C89.1488 36.8955 88.8281 36.7783 88.3691 36.6807C87.9134 36.583 87.5505 36.4658 87.2803 36.3291C87.0133 36.1924 86.8148 36.0296 86.6846 35.8408C86.5576 35.652 86.4941 35.4274 86.4941 35.167C86.4941 34.734 86.6764 34.3678 87.041 34.0684C87.4089 33.7689 87.8776 33.6191 88.4473 33.6191C89.0462 33.6191 89.5312 33.7738 89.9023 34.083C90.2767 34.3923 90.4639 34.7878 90.4639 35.2695H89.5557C89.5557 35.0221 89.4499 34.8089 89.2383 34.6299C89.0299 34.4508 88.7663 34.3613 88.4473 34.3613C88.1185 34.3613 87.8613 34.4329 87.6758 34.5762C87.4902 34.7194 87.3975 34.9066 87.3975 35.1377C87.3975 35.3558 87.4837 35.5202 87.6562 35.6309C87.8288 35.7415 88.1396 35.8473 88.5889 35.9482C89.0413 36.0492 89.4076 36.1696 89.6875 36.3096C89.9674 36.4495 90.1742 36.6188 90.3076 36.8174C90.4443 37.0127 90.5127 37.252 90.5127 37.5352C90.5127 38.0072 90.3239 38.3864 89.9463 38.6729C89.5687 38.9561 89.0788 39.0977 88.4766 39.0977C88.0534 39.0977 87.679 39.0228 87.3535 38.873C87.028 38.7233 86.7725 38.515 86.5869 38.248C86.4046 37.9779 86.3135 37.6865 86.3135 37.374H87.2168C87.2331 37.6768 87.3535 37.9176 87.5781 38.0967C87.806 38.2725 88.1055 38.3604 88.4766 38.3604C88.8184 38.3604 89.0918 38.292 89.2969 38.1553C89.5052 38.0153 89.6094 37.8298 89.6094 37.5986ZM91.4502 36.3096C91.4502 35.792 91.5511 35.3265 91.7529 34.9131C91.958 34.4997 92.2412 34.1807 92.6025 33.9561C92.9671 33.7314 93.3822 33.6191 93.8477 33.6191C94.5671 33.6191 95.1481 33.8682 95.5908 34.3662C96.0368 34.8643 96.2598 35.5267 96.2598 36.3535V36.417C96.2598 36.9313 96.1605 37.3936 95.9619 37.8037C95.7666 38.2106 95.485 38.528 95.1172 38.7559C94.7526 38.9837 94.3327 39.0977 93.8574 39.0977C93.1413 39.0977 92.5602 38.8486 92.1143 38.3506C91.6715 37.8525 91.4502 37.1934 91.4502 36.373V36.3096ZM92.3584 36.417C92.3584 37.0029 92.4935 37.4733 92.7637 37.8281C93.0371 38.1829 93.4017 38.3604 93.8574 38.3604C94.3164 38.3604 94.681 38.1813 94.9512 37.8232C95.2214 37.4619 95.3564 36.9574 95.3564 36.3096C95.3564 35.7301 95.2181 35.2614 94.9414 34.9033C94.668 34.542 94.3034 34.3613 93.8477 34.3613C93.4017 34.3613 93.042 34.5387 92.7686 34.8936C92.4951 35.2484 92.3584 35.7562 92.3584 36.417ZM101.865 36.417C101.865 37.2243 101.68 37.8737 101.309 38.3652C100.938 38.8535 100.439 39.0977 99.8145 39.0977C99.1471 39.0977 98.6312 38.8617 98.2666 38.3896L98.2227 39H97.3926V31.5H98.2959V34.2979C98.6605 33.8454 99.1634 33.6191 99.8047 33.6191C100.446 33.6191 100.949 33.8617 101.313 34.3467C101.681 34.8317 101.865 35.4958 101.865 36.3389V36.417ZM100.962 36.3145C100.962 35.6992 100.843 35.224 100.605 34.8887C100.368 34.5534 100.026 34.3857 99.5801 34.3857C98.9844 34.3857 98.5563 34.6624 98.2959 35.2158V37.501C98.5726 38.0544 99.0039 38.3311 99.5898 38.3311C100.023 38.3311 100.36 38.1634 100.601 37.8281C100.841 37.4928 100.962 36.9883 100.962 36.3145ZM105.562 34.5273C105.425 34.5046 105.277 34.4932 105.117 34.4932C104.525 34.4932 104.123 34.7454 103.911 35.25V39H103.008V33.7168H103.887L103.901 34.3271C104.198 33.8551 104.618 33.6191 105.161 33.6191C105.337 33.6191 105.47 33.6419 105.562 33.6875V34.5273ZM108.491 39.0977C107.775 39.0977 107.192 38.8633 106.743 38.3945C106.294 37.9225 106.069 37.2926 106.069 36.5049V36.3389C106.069 35.8148 106.169 35.3477 106.367 34.9375C106.569 34.5241 106.849 34.2018 107.207 33.9707C107.568 33.7363 107.959 33.6191 108.379 33.6191C109.066 33.6191 109.6 33.8454 109.98 34.2979C110.361 34.7503 110.552 35.3981 110.552 36.2412V36.6172H106.973C106.986 37.138 107.137 37.5596 107.427 37.8818C107.72 38.2008 108.091 38.3604 108.54 38.3604C108.859 38.3604 109.129 38.2952 109.351 38.165C109.572 38.0348 109.766 37.8623 109.932 37.6475L110.483 38.0771C110.041 38.7575 109.377 39.0977 108.491 39.0977ZM108.379 34.3613C108.014 34.3613 107.708 34.4948 107.461 34.7617C107.214 35.0254 107.061 35.3965 107.002 35.875H109.648V35.8066C109.622 35.3477 109.499 34.9928 109.277 34.7422C109.056 34.4883 108.757 34.3613 108.379 34.3613ZM116.274 39.0977C115.558 39.0977 114.976 38.8633 114.526 38.3945C114.077 37.9225 113.853 37.2926 113.853 36.5049V36.3389C113.853 35.8148 113.952 35.3477 114.15 34.9375C114.352 34.5241 114.632 34.2018 114.99 33.9707C115.352 33.7363 115.742 33.6191 116.162 33.6191C116.849 33.6191 117.383 33.8454 117.764 34.2979C118.145 34.7503 118.335 35.3981 118.335 36.2412V36.6172H114.756C114.769 37.138 114.92 37.5596 115.21 37.8818C115.503 38.2008 115.874 38.3604 116.323 38.3604C116.642 38.3604 116.912 38.2952 117.134 38.165C117.355 38.0348 117.549 37.8623 117.715 37.6475L118.267 38.0771C117.824 38.7575 117.16 39.0977 116.274 39.0977ZM116.162 34.3613C115.798 34.3613 115.492 34.4948 115.244 34.7617C114.997 35.0254 114.844 35.3965 114.785 35.875H117.432V35.8066C117.406 35.3477 117.282 34.9928 117.061 34.7422C116.839 34.4883 116.54 34.3613 116.162 34.3613ZM120.366 39H119.463V31.5H120.366V39ZM125.146 33.7168L125.171 34.3027C125.558 33.847 126.081 33.6191 126.738 33.6191C127.477 33.6191 127.98 33.9023 128.247 34.4688C128.423 34.2148 128.651 34.0098 128.931 33.8535C129.214 33.6973 129.548 33.6191 129.932 33.6191C131.09 33.6191 131.68 34.2327 131.699 35.46V39H130.796V35.5137C130.796 35.1361 130.71 34.8545 130.537 34.6689C130.365 34.4801 130.075 34.3857 129.668 34.3857C129.333 34.3857 129.054 34.4867 128.833 34.6885C128.612 34.887 128.483 35.1556 128.447 35.4941V39H127.539V35.5381C127.539 34.7699 127.163 34.3857 126.411 34.3857C125.819 34.3857 125.413 34.638 125.195 35.1426V39H124.292V33.7168H125.146ZM136.328 39C136.276 38.8958 136.234 38.7103 136.201 38.4434C135.781 38.8796 135.28 39.0977 134.697 39.0977C134.176 39.0977 133.748 38.9512 133.413 38.6582C133.081 38.362 132.915 37.9876 132.915 37.5352C132.915 36.985 133.123 36.5586 133.54 36.2559C133.96 35.9499 134.549 35.7969 135.308 35.7969H136.187V35.3818C136.187 35.0661 136.092 34.8154 135.903 34.6299C135.715 34.4411 135.436 34.3467 135.068 34.3467C134.746 34.3467 134.476 34.4281 134.258 34.5908C134.04 34.7536 133.931 34.9505 133.931 35.1816H133.022C133.022 34.918 133.115 34.6641 133.301 34.4199C133.49 34.1725 133.743 33.9772 134.062 33.834C134.385 33.6908 134.738 33.6191 135.122 33.6191C135.731 33.6191 136.208 33.7721 136.553 34.0781C136.898 34.3809 137.077 34.7992 137.09 35.333V37.7646C137.09 38.2497 137.152 38.6354 137.275 38.9219V39H136.328ZM134.829 38.3115C135.112 38.3115 135.381 38.2383 135.635 38.0918C135.889 37.9453 136.073 37.7549 136.187 37.5205V36.4365H135.479C134.372 36.4365 133.818 36.7604 133.818 37.4082C133.818 37.6914 133.913 37.9128 134.102 38.0723C134.29 38.2318 134.533 38.3115 134.829 38.3115ZM142.969 36.417C142.969 37.221 142.785 37.8688 142.417 38.3604C142.049 38.8519 141.551 39.0977 140.923 39.0977C140.282 39.0977 139.777 38.8942 139.409 38.4873V41.0312H138.506V33.7168H139.331L139.375 34.3027C139.743 33.847 140.254 33.6191 140.908 33.6191C141.543 33.6191 142.044 33.8584 142.412 34.3369C142.783 34.8154 142.969 35.4811 142.969 36.334V36.417ZM142.065 36.3145C142.065 35.7188 141.938 35.2484 141.685 34.9033C141.431 34.5583 141.082 34.3857 140.64 34.3857C140.093 34.3857 139.683 34.6283 139.409 35.1133V37.6377C139.679 38.1195 140.093 38.3604 140.649 38.3604C141.082 38.3604 141.426 38.1895 141.68 37.8477C141.937 37.5026 142.065 36.9915 142.065 36.3145ZM147.383 39C147.331 38.8958 147.288 38.7103 147.256 38.4434C146.836 38.8796 146.335 39.0977 145.752 39.0977C145.231 39.0977 144.803 38.9512 144.468 38.6582C144.136 38.362 143.97 37.9876 143.97 37.5352C143.97 36.985 144.178 36.5586 144.595 36.2559C145.015 35.9499 145.604 35.7969 146.362 35.7969H147.241V35.3818C147.241 35.0661 147.147 34.8154 146.958 34.6299C146.769 34.4411 146.491 34.3467 146.123 34.3467C145.801 34.3467 145.531 34.4281 145.312 34.5908C145.094 34.7536 144.985 34.9505 144.985 35.1816H144.077C144.077 34.918 144.17 34.6641 144.355 34.4199C144.544 34.1725 144.798 33.9772 145.117 33.834C145.439 33.6908 145.793 33.6191 146.177 33.6191C146.785 33.6191 147.262 33.7721 147.607 34.0781C147.952 34.3809 148.132 34.7992 148.145 35.333V37.7646C148.145 38.2497 148.206 38.6354 148.33 38.9219V39H147.383ZM145.884 38.3115C146.167 38.3115 146.436 38.2383 146.689 38.0918C146.943 37.9453 147.127 37.7549 147.241 37.5205V36.4365H146.533C145.426 36.4365 144.873 36.7604 144.873 37.4082C144.873 37.6914 144.967 37.9128 145.156 38.0723C145.345 38.2318 145.588 38.3115 145.884 38.3115ZM25.1465 48.417C25.1465 49.221 24.9626 49.8688 24.5947 50.3604C24.2269 50.8519 23.7288 51.0977 23.1006 51.0977C22.4593 51.0977 21.9548 50.8942 21.5869 50.4873V53.0312H20.6836V45.7168H21.5088L21.5527 46.3027C21.9206 45.847 22.4316 45.6191 23.0859 45.6191C23.7207 45.6191 24.222 45.8584 24.5898 46.3369C24.9609 46.8154 25.1465 47.4811 25.1465 48.334V48.417ZM24.2432 48.3145C24.2432 47.7188 24.1162 47.2484 23.8623 46.9033C23.6084 46.5583 23.2601 46.3857 22.8174 46.3857C22.2705 46.3857 21.8604 46.6283 21.5869 47.1133V49.6377C21.8571 50.1195 22.2705 50.3604 22.8271 50.3604C23.2601 50.3604 23.6035 50.1895 23.8574 49.8477C24.1146 49.5026 24.2432 48.9915 24.2432 48.3145ZM29.5605 51C29.5085 50.8958 29.4661 50.7103 29.4336 50.4434C29.0137 50.8796 28.5124 51.0977 27.9297 51.0977C27.4089 51.0977 26.9808 50.9512 26.6455 50.6582C26.3135 50.362 26.1475 49.9876 26.1475 49.5352C26.1475 48.985 26.3558 48.5586 26.7725 48.2559C27.1924 47.9499 27.7816 47.7969 28.54 47.7969H29.4189V47.3818C29.4189 47.0661 29.3245 46.8154 29.1357 46.6299C28.9469 46.4411 28.6686 46.3467 28.3008 46.3467C27.9785 46.3467 27.7083 46.4281 27.4902 46.5908C27.2721 46.7536 27.1631 46.9505 27.1631 47.1816H26.2549C26.2549 46.918 26.3477 46.6641 26.5332 46.4199C26.722 46.1725 26.9759 45.9772 27.2949 45.834C27.6172 45.6908 27.9704 45.6191 28.3545 45.6191C28.9632 45.6191 29.4401 45.7721 29.7852 46.0781C30.1302 46.3809 30.3092 46.7992 30.3223 47.333V49.7646C30.3223 50.2497 30.3841 50.6354 30.5078 50.9219V51H29.5605ZM28.0615 50.3115C28.3447 50.3115 28.6133 50.2383 28.8672 50.0918C29.1211 49.9453 29.305 49.7549 29.4189 49.5205V48.4365H28.7109C27.6042 48.4365 27.0508 48.7604 27.0508 49.4082C27.0508 49.6914 27.1452 49.9128 27.334 50.0723C27.5228 50.2318 27.7653 50.3115 28.0615 50.3115ZM34.292 46.5273C34.1553 46.5046 34.0072 46.4932 33.8477 46.4932C33.2552 46.4932 32.8532 46.7454 32.6416 47.25V51H31.7383V45.7168H32.6172L32.6318 46.3271C32.9281 45.8551 33.348 45.6191 33.8916 45.6191C34.0674 45.6191 34.2008 45.6419 34.292 45.6875V46.5273ZM38.1934 51C38.1413 50.8958 38.099 50.7103 38.0664 50.4434C37.6465 50.8796 37.1452 51.0977 36.5625 51.0977C36.0417 51.0977 35.6136 50.9512 35.2783 50.6582C34.9463 50.362 34.7803 49.9876 34.7803 49.5352C34.7803 48.985 34.9886 48.5586 35.4053 48.2559C35.8252 47.9499 36.4144 47.7969 37.1729 47.7969H38.0518V47.3818C38.0518 47.0661 37.9574 46.8154 37.7686 46.6299C37.5798 46.4411 37.3014 46.3467 36.9336 46.3467C36.6113 46.3467 36.3411 46.4281 36.123 46.5908C35.9049 46.7536 35.7959 46.9505 35.7959 47.1816H34.8877C34.8877 46.918 34.9805 46.6641 35.166 46.4199C35.3548 46.1725 35.6087 45.9772 35.9277 45.834C36.25 45.6908 36.6032 45.6191 36.9873 45.6191C37.596 45.6191 38.0729 45.7721 38.418 46.0781C38.763 46.3809 38.9421 46.7992 38.9551 47.333V49.7646C38.9551 50.2497 39.0169 50.6354 39.1406 50.9219V51H38.1934ZM36.6943 50.3115C36.9775 50.3115 37.2461 50.2383 37.5 50.0918C37.7539 49.9453 37.9378 49.7549 38.0518 49.5205V48.4365H37.3438C36.237 48.4365 35.6836 48.7604 35.6836 49.4082C35.6836 49.6914 35.778 49.9128 35.9668 50.0723C36.1556 50.2318 36.3981 50.3115 36.6943 50.3115ZM44.5947 49.7744L45.9033 45.7168H46.8262L44.9316 51H44.2432L42.3291 45.7168H43.252L44.5947 49.7744ZM49.8193 51.0977C49.1032 51.0977 48.5205 50.8633 48.0713 50.3945C47.6221 49.9225 47.3975 49.2926 47.3975 48.5049V48.3389C47.3975 47.8148 47.4967 47.3477 47.6953 46.9375C47.8971 46.5241 48.1771 46.2018 48.5352 45.9707C48.8965 45.7363 49.2871 45.6191 49.707 45.6191C50.3939 45.6191 50.9277 45.8454 51.3086 46.2979C51.6895 46.7503 51.8799 47.3981 51.8799 48.2412V48.6172H48.3008C48.3138 49.138 48.4652 49.5596 48.7549 49.8818C49.0479 50.2008 49.4189 50.3604 49.8682 50.3604C50.1872 50.3604 50.4574 50.2952 50.6787 50.165C50.9001 50.0348 51.0938 49.8623 51.2598 49.6475L51.8115 50.0771C51.3688 50.7575 50.7048 51.0977 49.8193 51.0977ZM49.707 46.3613C49.3424 46.3613 49.0365 46.4948 48.7891 46.7617C48.5417 47.0254 48.3887 47.3965 48.3301 47.875H50.9766V47.8066C50.9505 47.3477 50.8268 46.9928 50.6055 46.7422C50.3841 46.4883 50.0846 46.3613 49.707 46.3613ZM55.4834 46.5273C55.3467 46.5046 55.1986 46.4932 55.0391 46.4932C54.4466 46.4932 54.0446 46.7454 53.833 47.25V51H52.9297V45.7168H53.8086L53.8232 46.3271C54.1195 45.8551 54.5394 45.6191 55.083 45.6191C55.2588 45.6191 55.3923 45.6419 55.4834 45.6875V46.5273ZM59.6484 45.7168L59.6729 46.3027C60.0602 45.847 60.5827 45.6191 61.2402 45.6191C61.9792 45.6191 62.4821 45.9023 62.749 46.4688C62.9248 46.2148 63.1527 46.0098 63.4326 45.8535C63.7158 45.6973 64.0495 45.6191 64.4336 45.6191C65.5924 45.6191 66.1816 46.2327 66.2012 47.46V51H65.2979V47.5137C65.2979 47.1361 65.2116 46.8545 65.0391 46.6689C64.8665 46.4801 64.5768 46.3857 64.1699 46.3857C63.8346 46.3857 63.5563 46.4867 63.335 46.6885C63.1136 46.887 62.985 47.1556 62.9492 47.4941V51H62.041V47.5381C62.041 46.7699 61.665 46.3857 60.9131 46.3857C60.3206 46.3857 59.9154 46.638 59.6973 47.1426V51H58.7939V45.7168H59.6484ZM70.8301 51C70.778 50.8958 70.7357 50.7103 70.7031 50.4434C70.2832 50.8796 69.7819 51.0977 69.1992 51.0977C68.6784 51.0977 68.2503 50.9512 67.915 50.6582C67.583 50.362 67.417 49.9876 67.417 49.5352C67.417 48.985 67.6253 48.5586 68.042 48.2559C68.4619 47.9499 69.0511 47.7969 69.8096 47.7969H70.6885V47.3818C70.6885 47.0661 70.5941 46.8154 70.4053 46.6299C70.2165 46.4411 69.9382 46.3467 69.5703 46.3467C69.248 46.3467 68.9779 46.4281 68.7598 46.5908C68.5417 46.7536 68.4326 46.9505 68.4326 47.1816H67.5244C67.5244 46.918 67.6172 46.6641 67.8027 46.4199C67.9915 46.1725 68.2454 45.9772 68.5645 45.834C68.8867 45.6908 69.2399 45.6191 69.624 45.6191C70.2327 45.6191 70.7096 45.7721 71.0547 46.0781C71.3997 46.3809 71.5788 46.7992 71.5918 47.333V49.7646C71.5918 50.2497 71.6536 50.6354 71.7773 50.9219V51H70.8301ZM69.3311 50.3115C69.6143 50.3115 69.8828 50.2383 70.1367 50.0918C70.3906 49.9453 70.5745 49.7549 70.6885 49.5205V48.4365H69.9805C68.8737 48.4365 68.3203 48.7604 68.3203 49.4082C68.3203 49.6914 68.4147 49.9128 68.6035 50.0723C68.7923 50.2318 69.0348 50.3115 69.3311 50.3115ZM70.166 43.5H71.2598L69.9512 44.9355H69.2236L70.166 43.5ZM76.084 49.5986C76.084 49.3545 75.9912 49.1657 75.8057 49.0322C75.6234 48.8955 75.3027 48.7783 74.8438 48.6807C74.388 48.583 74.0251 48.4658 73.7549 48.3291C73.488 48.1924 73.2894 48.0296 73.1592 47.8408C73.0322 47.652 72.9688 47.4274 72.9688 47.167C72.9688 46.734 73.151 46.3678 73.5156 46.0684C73.8835 45.7689 74.3522 45.6191 74.9219 45.6191C75.5208 45.6191 76.0059 45.7738 76.377 46.083C76.7513 46.3923 76.9385 46.7878 76.9385 47.2695H76.0303C76.0303 47.0221 75.9245 46.8089 75.7129 46.6299C75.5046 46.4508 75.2409 46.3613 74.9219 46.3613C74.5931 46.3613 74.3359 46.4329 74.1504 46.5762C73.9648 46.7194 73.8721 46.9066 73.8721 47.1377C73.8721 47.3558 73.9583 47.5202 74.1309 47.6309C74.3034 47.7415 74.6143 47.8473 75.0635 47.9482C75.516 48.0492 75.8822 48.1696 76.1621 48.3096C76.4421 48.4495 76.6488 48.6188 76.7822 48.8174C76.9189 49.0127 76.9873 49.252 76.9873 49.5352C76.9873 50.0072 76.7985 50.3864 76.4209 50.6729C76.0433 50.9561 75.5534 51.0977 74.9512 51.0977C74.528 51.0977 74.1536 51.0228 73.8281 50.873C73.5026 50.7233 73.2471 50.515 73.0615 50.248C72.8792 49.9779 72.7881 49.6865 72.7881 49.374H73.6914C73.7077 49.6768 73.8281 49.9176 74.0527 50.0967C74.2806 50.2725 74.5801 50.3604 74.9512 50.3604C75.293 50.3604 75.5664 50.292 75.7715 50.1553C75.9798 50.0153 76.084 49.8298 76.084 49.5986ZM81.626 51H80.7227V45.7168H81.626V51ZM80.6494 44.3154C80.6494 44.1689 80.6934 44.0452 80.7812 43.9443C80.8724 43.8434 81.0059 43.793 81.1816 43.793C81.3574 43.793 81.4909 43.8434 81.582 43.9443C81.6732 44.0452 81.7188 44.1689 81.7188 44.3154C81.7188 44.4619 81.6732 44.584 81.582 44.6816C81.4909 44.7793 81.3574 44.8281 81.1816 44.8281C81.0059 44.8281 80.8724 44.7793 80.7812 44.6816C80.6934 44.584 80.6494 44.4619 80.6494 44.3154ZM83.9307 45.7168L83.96 46.3809C84.3636 45.873 84.891 45.6191 85.542 45.6191C86.6585 45.6191 87.2217 46.249 87.2314 47.5088V51H86.3281V47.5039C86.3249 47.123 86.237 46.8415 86.0645 46.6592C85.8952 46.4769 85.6299 46.3857 85.2686 46.3857C84.9756 46.3857 84.7184 46.4639 84.4971 46.6201C84.2757 46.7764 84.1032 46.9814 83.9795 47.2354V51H83.0762V45.7168H83.9307ZM89.0381 51V46.415H88.2031V45.7168H89.0381V45.1748C89.0381 44.6084 89.1895 44.1706 89.4922 43.8613C89.7949 43.5521 90.223 43.3975 90.7764 43.3975C90.9847 43.3975 91.1914 43.4251 91.3965 43.4805L91.3477 44.2129C91.1947 44.1836 91.0319 44.1689 90.8594 44.1689C90.5664 44.1689 90.3402 44.2552 90.1807 44.4277C90.0212 44.597 89.9414 44.8411 89.9414 45.1602V45.7168H91.0693V46.415H89.9414V51H89.0381ZM91.8311 48.3096C91.8311 47.792 91.932 47.3265 92.1338 46.9131C92.3389 46.4997 92.6221 46.1807 92.9834 45.9561C93.348 45.7314 93.763 45.6191 94.2285 45.6191C94.9479 45.6191 95.529 45.8682 95.9717 46.3662C96.4176 46.8643 96.6406 47.5267 96.6406 48.3535V48.417C96.6406 48.9313 96.5413 49.3936 96.3428 49.8037C96.1475 50.2106 95.8659 50.528 95.498 50.7559C95.1335 50.9837 94.7135 51.0977 94.2383 51.0977C93.5221 51.0977 92.9411 50.8486 92.4951 50.3506C92.0524 49.8525 91.8311 49.1934 91.8311 48.373V48.3096ZM92.7393 48.417C92.7393 49.0029 92.8743 49.4733 93.1445 49.8281C93.418 50.1829 93.7826 50.3604 94.2383 50.3604C94.6973 50.3604 95.0618 50.1813 95.332 49.8232C95.6022 49.4619 95.7373 48.9574 95.7373 48.3096C95.7373 47.7301 95.599 47.2614 95.3223 46.9033C95.0488 46.542 94.6842 46.3613 94.2285 46.3613C93.7826 46.3613 93.4229 46.5387 93.1494 46.8936C92.876 47.2484 92.7393 47.7562 92.7393 48.417ZM100.327 46.5273C100.19 46.5046 100.042 46.4932 99.8828 46.4932C99.2904 46.4932 98.8883 46.7454 98.6768 47.25V51H97.7734V45.7168H98.6523L98.667 46.3271C98.9632 45.8551 99.3831 45.6191 99.9268 45.6191C100.103 45.6191 100.236 45.6419 100.327 45.6875V46.5273ZM102.012 45.7168L102.036 46.3027C102.424 45.847 102.946 45.6191 103.604 45.6191C104.342 45.6191 104.845 45.9023 105.112 46.4688C105.288 46.2148 105.516 46.0098 105.796 45.8535C106.079 45.6973 106.413 45.6191 106.797 45.6191C107.956 45.6191 108.545 46.2327 108.564 47.46V51H107.661V47.5137C107.661 47.1361 107.575 46.8545 107.402 46.6689C107.23 46.4801 106.94 46.3857 106.533 46.3857C106.198 46.3857 105.92 46.4867 105.698 46.6885C105.477 46.887 105.348 47.1556 105.312 47.4941V51H104.404V47.5381C104.404 46.7699 104.028 46.3857 103.276 46.3857C102.684 46.3857 102.279 46.638 102.061 47.1426V51H101.157V45.7168H102.012ZM113.193 51C113.141 50.8958 113.099 50.7103 113.066 50.4434C112.646 50.8796 112.145 51.0977 111.562 51.0977C111.042 51.0977 110.614 50.9512 110.278 50.6582C109.946 50.362 109.78 49.9876 109.78 49.5352C109.78 48.985 109.989 48.5586 110.405 48.2559C110.825 47.9499 111.414 47.7969 112.173 47.7969H113.052V47.3818C113.052 47.0661 112.957 46.8154 112.769 46.6299C112.58 46.4411 112.301 46.3467 111.934 46.3467C111.611 46.3467 111.341 46.4281 111.123 46.5908C110.905 46.7536 110.796 46.9505 110.796 47.1816H109.888C109.888 46.918 109.98 46.6641 110.166 46.4199C110.355 46.1725 110.609 45.9772 110.928 45.834C111.25 45.6908 111.603 45.6191 111.987 45.6191C112.596 45.6191 113.073 45.7721 113.418 46.0781C113.763 46.3809 113.942 46.7992 113.955 47.333V49.7646C113.955 50.2497 114.017 50.6354 114.141 50.9219V51H113.193ZM111.694 50.3115C111.978 50.3115 112.246 50.2383 112.5 50.0918C112.754 49.9453 112.938 49.7549 113.052 49.5205V48.4365H112.344C111.237 48.4365 110.684 48.7604 110.684 49.4082C110.684 49.6914 110.778 49.9128 110.967 50.0723C111.156 50.2318 111.398 50.3115 111.694 50.3115ZM117.49 50.3604C117.812 50.3604 118.094 50.2627 118.335 50.0674C118.576 49.8721 118.709 49.6279 118.735 49.335H119.59C119.574 49.6377 119.469 49.9258 119.277 50.1992C119.085 50.4727 118.828 50.6908 118.506 50.8535C118.187 51.0163 117.848 51.0977 117.49 51.0977C116.771 51.0977 116.198 50.8584 115.771 50.3799C115.348 49.8981 115.137 49.2406 115.137 48.4072V48.2559C115.137 47.7415 115.231 47.2842 115.42 46.8838C115.609 46.4834 115.879 46.1725 116.23 45.9512C116.585 45.7298 117.004 45.6191 117.485 45.6191C118.078 45.6191 118.569 45.7965 118.96 46.1514C119.354 46.5062 119.564 46.9668 119.59 47.5332H118.735C118.709 47.1914 118.579 46.9115 118.345 46.6934C118.114 46.472 117.827 46.3613 117.485 46.3613C117.026 46.3613 116.67 46.5273 116.416 46.8594C116.165 47.1882 116.04 47.665 116.04 48.29V48.4609C116.04 49.0697 116.165 49.5384 116.416 49.8672C116.667 50.196 117.025 50.3604 117.49 50.3604ZM121.587 51H120.684V45.7168H121.587V51ZM120.61 44.3154C120.61 44.1689 120.654 44.0452 120.742 43.9443C120.833 43.8434 120.967 43.793 121.143 43.793C121.318 43.793 121.452 43.8434 121.543 43.9443C121.634 44.0452 121.68 44.1689 121.68 44.3154C121.68 44.4619 121.634 44.584 121.543 44.6816C121.452 44.7793 121.318 44.8281 121.143 44.8281C120.967 44.8281 120.833 44.7793 120.742 44.6816C120.654 44.584 120.61 44.4619 120.61 44.3154ZM122.798 48.3096C122.798 47.792 122.899 47.3265 123.101 46.9131C123.306 46.4997 123.589 46.1807 123.95 45.9561C124.315 45.7314 124.73 45.6191 125.195 45.6191C125.915 45.6191 126.496 45.8682 126.938 46.3662C127.384 46.8643 127.607 47.5267 127.607 48.3535V48.417C127.607 48.9313 127.508 49.3936 127.31 49.8037C127.114 50.2106 126.833 50.528 126.465 50.7559C126.1 50.9837 125.68 51.0977 125.205 51.0977C124.489 51.0977 123.908 50.8486 123.462 50.3506C123.019 49.8525 122.798 49.1934 122.798 48.373V48.3096ZM123.706 48.417C123.706 49.0029 123.841 49.4733 124.111 49.8281C124.385 50.1829 124.749 50.3604 125.205 50.3604C125.664 50.3604 126.029 50.1813 126.299 49.8232C126.569 49.4619 126.704 48.9574 126.704 48.3096C126.704 47.7301 126.566 47.2614 126.289 46.9033C126.016 46.542 125.651 46.3613 125.195 46.3613C124.749 46.3613 124.39 46.5387 124.116 46.8936C123.843 47.2484 123.706 47.7562 123.706 48.417ZM125.605 43.5H126.699L125.391 44.9355H124.663L125.605 43.5ZM129.595 45.7168L129.624 46.3809C130.028 45.873 130.555 45.6191 131.206 45.6191C132.323 45.6191 132.886 46.249 132.896 47.5088V51H131.992V47.5039C131.989 47.123 131.901 46.8415 131.729 46.6592C131.559 46.4769 131.294 46.3857 130.933 46.3857C130.64 46.3857 130.382 46.4639 130.161 46.6201C129.94 46.7764 129.767 46.9814 129.644 47.2354V51H128.74V45.7168H129.595ZM134.277 50.5264C134.277 50.3701 134.323 50.2399 134.414 50.1357C134.508 50.0316 134.648 49.9795 134.834 49.9795C135.02 49.9795 135.16 50.0316 135.254 50.1357C135.352 50.2399 135.4 50.3701 135.4 50.5264C135.4 50.6761 135.352 50.8014 135.254 50.9023C135.16 51.0033 135.02 51.0537 134.834 51.0537C134.648 51.0537 134.508 51.0033 134.414 50.9023C134.323 50.8014 134.277 50.6761 134.277 50.5264Z" fill="#E58D0C"/>
<defs>
<filter id="filter0_d" x="0" y="0" width="172.385" height="68" filterUnits="userSpaceOnUse" color-interpolation-filters="sRGB">
<feFlood flood-opacity="0" result="BackgroundImageFix"/>
<feColorMatrix in="SourceAlpha" type="matrix" values="0 0 0 0 0 0 0 0 0 0 0 0 0 0 0 0 0 0 127 0"/>
<feOffset dx="-2" dy="2"/>
<feGaussianBlur stdDeviation="1"/>
<feColorMatrix type="matrix" values="0 0 0 0 0 0 0 0 0 0 0 0 0 0 0 0 0 0 0.08 0"/>
<feBlend mode="normal" in2="BackgroundImageFix" result="effect1_dropShadow"/>
<feBlend mode="normal" in="SourceGraphic" in2="effect1_dropShadow" result="shape"/>
</filter>
</defs>
</svg>
