<svg width="223" height="99" viewBox="0 0 223 99" fill="none" xmlns="http://www.w3.org/2000/svg">
<g filter="url(#filter0_d)">
<path d="M7 12C7 9.23858 9.23858 7 12 7H211C213.761 7 216 9.23858 216 12V86.5233C216 89.2847 213.761 91.5233 211 91.5233H12C9.23858 91.5233 7 89.2847 7 86.5233V12Z" fill="white"/>
</g>
<path d="M76.4807 24.732C76.4807 25.132 76.4967 25.448 76.5287 25.68C76.5607 25.912 76.6207 26.092 76.7087 26.22C76.8047 26.348 76.9367 26.432 77.1047 26.472C77.2807 26.512 77.5087 26.536 77.7887 26.544V27H73.9007V26.544C74.1807 26.536 74.4047 26.512 74.5727 26.472C74.7487 26.424 74.8847 26.34 74.9807 26.22C75.0767 26.1 75.1407 25.932 75.1727 25.716C75.2047 25.492 75.2207 25.192 75.2207 24.816V19.944C75.2207 19.608 75.2047 19.332 75.1727 19.116C75.1487 18.892 75.0927 18.716 75.0047 18.588C74.9247 18.46 74.8047 18.372 74.6447 18.324C74.4847 18.268 74.2767 18.232 74.0207 18.216V17.76H77.6687V18.216C77.4127 18.224 77.2047 18.256 77.0447 18.312C76.8927 18.368 76.7727 18.464 76.6847 18.6C76.6047 18.728 76.5487 18.908 76.5167 19.14C76.4927 19.372 76.4807 19.668 76.4807 20.028V24.732ZM80.7809 25.116C80.7809 25.444 80.7889 25.704 80.8049 25.896C80.8209 26.08 80.8609 26.224 80.9249 26.328C80.9969 26.424 81.0969 26.488 81.2249 26.52C81.3609 26.552 81.5449 26.576 81.7769 26.592V27H78.6329V26.592C78.8569 26.576 79.0329 26.552 79.1609 26.52C79.2969 26.488 79.4009 26.424 79.4729 26.328C79.5449 26.232 79.5889 26.096 79.6049 25.92C79.6289 25.744 79.6409 25.504 79.6409 25.2V23.604C79.6409 22.652 79.6169 22.072 79.5689 21.864C79.5449 21.76 79.5129 21.676 79.4729 21.612C79.4409 21.54 79.3889 21.488 79.3169 21.456C79.2449 21.416 79.1529 21.392 79.0409 21.384C78.9289 21.368 78.7849 21.36 78.6089 21.36V20.976L80.5289 20.52L80.6729 21.708H80.7209C81.0249 21.332 81.3809 21.04 81.7889 20.832C82.1969 20.624 82.6409 20.52 83.1209 20.52C83.4889 20.52 83.8249 20.58 84.1289 20.7C84.4329 20.82 84.6649 20.984 84.8249 21.192C84.9609 21.376 85.0569 21.616 85.1129 21.912C85.1689 22.2 85.1969 22.6 85.1969 23.112V25.116C85.1969 25.444 85.2049 25.704 85.2209 25.896C85.2449 26.08 85.2889 26.224 85.3529 26.328C85.4169 26.424 85.5129 26.488 85.6409 26.52C85.7769 26.552 85.9529 26.576 86.1689 26.592V27H83.0609V26.592C83.2849 26.584 83.4609 26.564 83.5889 26.532C83.7249 26.492 83.8249 26.424 83.8889 26.328C83.9609 26.232 84.0049 26.096 84.0209 25.92C84.0449 25.736 84.0569 25.496 84.0569 25.2V23.616C84.0569 23.16 84.0329 22.776 83.9849 22.464C83.9369 22.152 83.8569 21.9 83.7449 21.708C83.6409 21.516 83.5009 21.38 83.3249 21.3C83.1489 21.212 82.9369 21.168 82.6889 21.168C82.3289 21.168 81.9969 21.264 81.6929 21.456C81.3969 21.64 81.1649 21.896 80.9969 22.224C80.9569 22.304 80.9209 22.38 80.8889 22.452C80.8649 22.524 80.8449 22.608 80.8289 22.704C80.8129 22.8 80.8009 22.912 80.7929 23.04C80.7849 23.16 80.7809 23.316 80.7809 23.508V25.116ZM86.5742 20.832H87.9302V19.968C87.9302 19.048 88.1702 18.332 88.6502 17.82C89.1382 17.3 89.8302 17.04 90.7262 17.04C91.2222 17.04 91.6262 17.116 91.9382 17.268C92.2502 17.42 92.4062 17.616 92.4062 17.856C92.4062 18.016 92.3542 18.152 92.2502 18.264C92.1542 18.368 92.0302 18.42 91.8782 18.42C91.7822 18.42 91.6782 18.392 91.5662 18.336C91.4622 18.272 91.3222 18.168 91.1462 18.024C90.9462 17.856 90.7902 17.748 90.6782 17.7C90.5662 17.644 90.4342 17.616 90.2822 17.616C89.8022 17.616 89.4582 17.86 89.2502 18.348C89.1782 18.508 89.1262 18.704 89.0942 18.936C89.0702 19.168 89.0582 19.488 89.0582 19.896V20.832H90.9902V21.396H89.0582V25.068C89.0582 25.364 89.0742 25.608 89.1062 25.8C89.1462 25.992 89.2102 26.148 89.2982 26.268C89.3942 26.38 89.5222 26.46 89.6822 26.508C89.8422 26.548 90.0502 26.572 90.3062 26.58V27H86.8982V26.58C87.1222 26.572 87.3022 26.552 87.4382 26.52C87.5742 26.48 87.6782 26.412 87.7502 26.316C87.8222 26.212 87.8702 26.072 87.8942 25.896C87.9182 25.712 87.9302 25.468 87.9302 25.164V21.396H86.5742V20.832ZM94.8626 20.52C95.3186 20.52 95.7506 20.604 96.1586 20.772C96.5666 20.932 96.9226 21.156 97.2266 21.444C97.5386 21.732 97.7826 22.076 97.9586 22.476C98.1426 22.868 98.2346 23.3 98.2346 23.772C98.2346 24.26 98.1426 24.708 97.9586 25.116C97.7826 25.524 97.5386 25.876 97.2266 26.172C96.9226 26.468 96.5666 26.7 96.1586 26.868C95.7506 27.036 95.3186 27.12 94.8626 27.12C94.4146 27.12 93.9866 27.04 93.5786 26.88C93.1786 26.712 92.8266 26.48 92.5226 26.184C92.2186 25.888 91.9786 25.536 91.8026 25.128C91.6266 24.712 91.5386 24.26 91.5386 23.772C91.5386 23.3 91.6266 22.864 91.8026 22.464C91.9786 22.064 92.2186 21.72 92.5226 21.432C92.8266 21.144 93.1786 20.92 93.5786 20.76C93.9866 20.6 94.4146 20.52 94.8626 20.52ZM94.8626 21.096C94.5666 21.096 94.2946 21.16 94.0466 21.288C93.8066 21.416 93.5986 21.6 93.4226 21.84C93.2546 22.072 93.1226 22.356 93.0266 22.692C92.9386 23.02 92.8946 23.384 92.8946 23.784C92.8946 24.2 92.9386 24.576 93.0266 24.912C93.1226 25.248 93.2546 25.536 93.4226 25.776C93.5986 26.008 93.8066 26.188 94.0466 26.316C94.2866 26.444 94.5586 26.508 94.8626 26.508C95.1666 26.508 95.4426 26.444 95.6906 26.316C95.9386 26.188 96.1506 26.004 96.3266 25.764C96.5026 25.524 96.6386 25.236 96.7346 24.9C96.8306 24.564 96.8786 24.192 96.8786 23.784C96.8786 23.384 96.8306 23.02 96.7346 22.692C96.6386 22.364 96.5026 22.084 96.3266 21.852C96.1506 21.612 95.9386 21.428 95.6906 21.3C95.4426 21.164 95.1666 21.096 94.8626 21.096ZM101.326 25.092C101.326 25.42 101.334 25.68 101.35 25.872C101.366 26.064 101.406 26.212 101.47 26.316C101.542 26.412 101.642 26.476 101.77 26.508C101.898 26.54 102.078 26.564 102.31 26.58V27H99.118V26.58C99.35 26.572 99.534 26.552 99.67 26.52C99.806 26.48 99.91 26.412 99.982 26.316C100.054 26.22 100.098 26.084 100.114 25.908C100.138 25.724 100.15 25.48 100.15 25.176V23.772C100.15 23.228 100.142 22.804 100.126 22.5C100.118 22.196 100.078 21.972 100.006 21.828C99.942 21.684 99.838 21.6 99.694 21.576C99.55 21.544 99.35 21.528 99.094 21.528V21.108L101.194 20.652L101.362 22.14H101.41C101.514 21.9 101.642 21.68 101.794 21.48C101.954 21.28 102.126 21.112 102.31 20.976C102.494 20.832 102.686 20.72 102.886 20.64C103.086 20.56 103.29 20.52 103.498 20.52C103.754 20.52 103.954 20.584 104.098 20.712C104.25 20.832 104.326 20.996 104.326 21.204C104.326 21.396 104.266 21.548 104.146 21.66C104.026 21.764 103.854 21.816 103.63 21.816C103.502 21.816 103.394 21.8 103.306 21.768C103.218 21.736 103.138 21.704 103.066 21.672C103.002 21.632 102.938 21.596 102.874 21.564C102.818 21.532 102.754 21.516 102.682 21.516C102.466 21.516 102.25 21.656 102.034 21.936C101.818 22.208 101.65 22.556 101.53 22.98C101.466 23.212 101.414 23.476 101.374 23.772C101.342 24.06 101.326 24.364 101.326 24.684V25.092ZM106.881 25.08C106.881 25.416 106.889 25.68 106.905 25.872C106.921 26.064 106.961 26.212 107.025 26.316C107.097 26.412 107.197 26.476 107.325 26.508C107.453 26.54 107.633 26.564 107.865 26.58V27H104.673V26.58C104.905 26.564 105.089 26.54 105.225 26.508C105.361 26.476 105.465 26.412 105.537 26.316C105.609 26.22 105.653 26.084 105.669 25.908C105.693 25.724 105.705 25.48 105.705 25.176V23.64C105.705 23.184 105.697 22.804 105.681 22.5C105.673 22.196 105.653 21.988 105.621 21.876C105.597 21.772 105.569 21.692 105.537 21.636C105.505 21.572 105.453 21.524 105.381 21.492C105.309 21.452 105.213 21.428 105.093 21.42C104.981 21.404 104.833 21.396 104.649 21.396V20.976L106.605 20.52L106.761 21.72H106.821C107.181 21.312 107.557 21.012 107.949 20.82C108.349 20.62 108.789 20.52 109.269 20.52C109.773 20.52 110.197 20.624 110.541 20.832C110.885 21.032 111.125 21.324 111.261 21.708H111.309C111.605 21.332 111.965 21.04 112.389 20.832C112.813 20.624 113.265 20.52 113.745 20.52C114.121 20.52 114.461 20.584 114.765 20.712C115.077 20.832 115.313 21 115.473 21.216C115.617 21.4 115.717 21.644 115.773 21.948C115.837 22.244 115.869 22.652 115.869 23.172V25.08C115.869 25.408 115.877 25.668 115.893 25.86C115.917 26.052 115.961 26.2 116.025 26.304C116.089 26.408 116.185 26.476 116.313 26.508C116.449 26.54 116.633 26.564 116.865 26.58V27H113.673V26.58C113.897 26.572 114.077 26.552 114.213 26.52C114.349 26.48 114.453 26.412 114.525 26.316C114.597 26.212 114.641 26.072 114.657 25.896C114.681 25.72 114.693 25.48 114.693 25.176V23.664C114.693 23.208 114.669 22.824 114.621 22.512C114.573 22.192 114.493 21.936 114.381 21.744C114.269 21.544 114.121 21.4 113.937 21.312C113.761 21.224 113.545 21.18 113.289 21.18C112.937 21.18 112.605 21.28 112.293 21.48C111.989 21.672 111.749 21.932 111.573 22.26C111.533 22.34 111.497 22.42 111.465 22.5C111.441 22.572 111.421 22.656 111.405 22.752C111.389 22.84 111.377 22.948 111.369 23.076C111.369 23.204 111.369 23.364 111.369 23.556V25.08C111.369 25.408 111.377 25.668 111.393 25.86C111.409 26.052 111.449 26.2 111.513 26.304C111.585 26.408 111.689 26.476 111.825 26.508C111.961 26.54 112.145 26.564 112.377 26.58V27H109.185V26.58C109.409 26.564 109.589 26.54 109.725 26.508C109.861 26.476 109.961 26.412 110.025 26.316C110.097 26.22 110.141 26.084 110.157 25.908C110.181 25.724 110.193 25.48 110.193 25.176V23.664C110.193 23.2 110.169 22.812 110.121 22.5C110.073 22.18 109.993 21.924 109.881 21.732C109.777 21.532 109.637 21.392 109.461 21.312C109.285 21.224 109.069 21.18 108.813 21.18C108.453 21.18 108.113 21.28 107.793 21.48C107.481 21.672 107.245 21.932 107.085 22.26C107.045 22.34 107.009 22.42 106.977 22.5C106.953 22.572 106.933 22.656 106.917 22.752C106.901 22.84 106.889 22.948 106.881 23.076C106.881 23.204 106.881 23.364 106.881 23.556V25.08ZM121.143 23.448C120.687 23.624 120.299 23.796 119.979 23.964C119.667 24.132 119.415 24.3 119.223 24.468C119.031 24.636 118.891 24.804 118.803 24.972C118.723 25.14 118.683 25.312 118.683 25.488C118.683 25.752 118.771 25.968 118.947 26.136C119.123 26.304 119.355 26.388 119.643 26.388C119.851 26.388 120.043 26.336 120.219 26.232C120.403 26.128 120.563 25.988 120.699 25.812C120.835 25.628 120.943 25.416 121.023 25.176C121.103 24.928 121.143 24.668 121.143 24.396V23.448ZM121.143 22.932V22.44C121.143 21.464 120.727 20.976 119.895 20.976C119.759 20.976 119.643 20.988 119.547 21.012C119.451 21.036 119.371 21.076 119.307 21.132C119.243 21.188 119.183 21.268 119.127 21.372C119.079 21.476 119.031 21.604 118.983 21.756C118.895 21.988 118.807 22.144 118.719 22.224C118.639 22.296 118.519 22.332 118.359 22.332C117.959 22.332 117.759 22.132 117.759 21.732C117.759 21.348 117.963 21.052 118.371 20.844C118.779 20.628 119.359 20.52 120.111 20.52C120.911 20.52 121.479 20.664 121.815 20.952C122.151 21.232 122.319 21.712 122.319 22.392V25.08C122.319 25.992 122.499 26.448 122.859 26.448C122.971 26.448 123.079 26.436 123.183 26.412C123.287 26.38 123.375 26.304 123.447 26.184L123.615 26.472C123.519 26.656 123.343 26.812 123.087 26.94C122.831 27.06 122.563 27.12 122.283 27.12C121.931 27.12 121.667 27.008 121.491 26.784C121.323 26.56 121.239 26.244 121.239 25.836H121.179C120.971 26.228 120.683 26.54 120.315 26.772C119.947 26.996 119.539 27.108 119.091 27.108C118.587 27.108 118.191 26.98 117.903 26.724C117.615 26.468 117.471 26.124 117.471 25.692C117.471 25.5 117.503 25.316 117.567 25.14C117.639 24.964 117.751 24.796 117.903 24.636C118.055 24.476 118.255 24.32 118.503 24.168C118.751 24.008 119.055 23.848 119.415 23.688L121.143 22.932ZM129.52 26.004C129.232 26.356 128.86 26.632 128.404 26.832C127.948 27.024 127.456 27.12 126.928 27.12C126.504 27.12 126.112 27.044 125.752 26.892C125.4 26.732 125.096 26.512 124.84 26.232C124.584 25.944 124.384 25.6 124.24 25.2C124.104 24.8 124.036 24.356 124.036 23.868C124.036 23.356 124.116 22.896 124.276 22.488C124.436 22.072 124.66 21.72 124.948 21.432C125.244 21.136 125.596 20.912 126.004 20.76C126.42 20.6 126.876 20.52 127.372 20.52C127.684 20.52 127.968 20.548 128.224 20.604C128.48 20.652 128.7 20.724 128.884 20.82C129.076 20.908 129.224 21.02 129.328 21.156C129.432 21.284 129.484 21.424 129.484 21.576C129.484 21.736 129.432 21.86 129.328 21.948C129.224 22.036 129.08 22.08 128.896 22.08C128.752 22.08 128.632 22.052 128.536 21.996C128.44 21.932 128.316 21.796 128.164 21.588C128.004 21.404 127.848 21.276 127.696 21.204C127.552 21.124 127.364 21.084 127.132 21.084C126.564 21.084 126.132 21.304 125.836 21.744C125.548 22.184 125.404 22.832 125.404 23.688C125.404 24.608 125.564 25.308 125.884 25.788C126.212 26.26 126.688 26.496 127.312 26.496C127.648 26.496 127.964 26.432 128.26 26.304C128.556 26.168 128.856 25.952 129.16 25.656L129.52 26.004ZM132.465 25.092C132.465 25.404 132.477 25.656 132.501 25.848C132.533 26.032 132.589 26.18 132.669 26.292C132.749 26.396 132.861 26.468 133.005 26.508C133.149 26.548 133.341 26.572 133.581 26.58V27H130.137V26.58C130.377 26.572 130.573 26.548 130.725 26.508C130.877 26.46 130.993 26.388 131.073 26.292C131.161 26.188 131.217 26.048 131.241 25.872C131.273 25.688 131.289 25.456 131.289 25.176V23.64C131.289 23.176 131.281 22.796 131.265 22.5C131.257 22.196 131.237 21.988 131.205 21.876C131.165 21.692 131.073 21.568 130.929 21.504C130.785 21.432 130.513 21.396 130.113 21.396V20.976L132.465 20.52V25.092ZM131.085 18.084C131.085 17.876 131.157 17.7 131.301 17.556C131.445 17.412 131.621 17.34 131.829 17.34C132.037 17.34 132.213 17.412 132.357 17.556C132.501 17.7 132.573 17.876 132.573 18.084C132.573 18.292 132.501 18.468 132.357 18.612C132.213 18.756 132.037 18.828 131.829 18.828C131.621 18.828 131.445 18.756 131.301 18.612C131.157 18.468 131.085 18.292 131.085 18.084ZM137.567 20.52C138.023 20.52 138.455 20.604 138.863 20.772C139.271 20.932 139.627 21.156 139.931 21.444C140.243 21.732 140.487 22.076 140.663 22.476C140.847 22.868 140.939 23.3 140.939 23.772C140.939 24.26 140.847 24.708 140.663 25.116C140.487 25.524 140.243 25.876 139.931 26.172C139.627 26.468 139.271 26.7 138.863 26.868C138.455 27.036 138.023 27.12 137.567 27.12C137.119 27.12 136.691 27.04 136.283 26.88C135.883 26.712 135.531 26.48 135.227 26.184C134.923 25.888 134.683 25.536 134.507 25.128C134.331 24.712 134.243 24.26 134.243 23.772C134.243 23.3 134.331 22.864 134.507 22.464C134.683 22.064 134.923 21.72 135.227 21.432C135.531 21.144 135.883 20.92 136.283 20.76C136.691 20.6 137.119 20.52 137.567 20.52ZM137.567 21.096C137.271 21.096 136.999 21.16 136.751 21.288C136.511 21.416 136.303 21.6 136.127 21.84C135.959 22.072 135.827 22.356 135.731 22.692C135.643 23.02 135.599 23.384 135.599 23.784C135.599 24.2 135.643 24.576 135.731 24.912C135.827 25.248 135.959 25.536 136.127 25.776C136.303 26.008 136.511 26.188 136.751 26.316C136.991 26.444 137.263 26.508 137.567 26.508C137.871 26.508 138.147 26.444 138.395 26.316C138.643 26.188 138.855 26.004 139.031 25.764C139.207 25.524 139.343 25.236 139.439 24.9C139.535 24.564 139.583 24.192 139.583 23.784C139.583 23.384 139.535 23.02 139.439 22.692C139.343 22.364 139.207 22.084 139.031 21.852C138.855 21.612 138.643 21.428 138.395 21.3C138.147 21.164 137.871 21.096 137.567 21.096ZM136.487 19.188L138.047 17.76C138.335 17.496 138.603 17.364 138.851 17.364C138.987 17.364 139.095 17.4 139.175 17.472C139.263 17.544 139.307 17.648 139.307 17.784C139.307 17.912 139.251 18.028 139.139 18.132C139.035 18.228 138.887 18.32 138.695 18.408L137.051 19.188H136.487ZM143.958 25.116C143.958 25.444 143.966 25.704 143.982 25.896C143.998 26.08 144.038 26.224 144.102 26.328C144.174 26.424 144.274 26.488 144.402 26.52C144.538 26.552 144.722 26.576 144.954 26.592V27H141.81V26.592C142.034 26.576 142.21 26.552 142.338 26.52C142.474 26.488 142.578 26.424 142.65 26.328C142.722 26.232 142.766 26.096 142.782 25.92C142.806 25.744 142.818 25.504 142.818 25.2V23.604C142.818 22.652 142.794 22.072 142.746 21.864C142.722 21.76 142.69 21.676 142.65 21.612C142.618 21.54 142.566 21.488 142.494 21.456C142.422 21.416 142.33 21.392 142.218 21.384C142.106 21.368 141.962 21.36 141.786 21.36V20.976L143.706 20.52L143.85 21.708H143.898C144.202 21.332 144.558 21.04 144.966 20.832C145.374 20.624 145.818 20.52 146.298 20.52C146.666 20.52 147.002 20.58 147.306 20.7C147.61 20.82 147.842 20.984 148.002 21.192C148.138 21.376 148.234 21.616 148.29 21.912C148.346 22.2 148.374 22.6 148.374 23.112V25.116C148.374 25.444 148.382 25.704 148.398 25.896C148.422 26.08 148.466 26.224 148.53 26.328C148.594 26.424 148.69 26.488 148.818 26.52C148.954 26.552 149.13 26.576 149.346 26.592V27H146.238V26.592C146.462 26.584 146.638 26.564 146.766 26.532C146.902 26.492 147.002 26.424 147.066 26.328C147.138 26.232 147.182 26.096 147.198 25.92C147.222 25.736 147.234 25.496 147.234 25.2V23.616C147.234 23.16 147.21 22.776 147.162 22.464C147.114 22.152 147.034 21.9 146.922 21.708C146.818 21.516 146.678 21.38 146.502 21.3C146.326 21.212 146.114 21.168 145.866 21.168C145.506 21.168 145.174 21.264 144.87 21.456C144.574 21.64 144.342 21.896 144.174 22.224C144.134 22.304 144.098 22.38 144.066 22.452C144.042 22.524 144.022 22.608 144.006 22.704C143.99 22.8 143.978 22.912 143.97 23.04C143.962 23.16 143.958 23.316 143.958 23.508V25.116Z" fill="#1C6633"/>
<path d="M54.5884 23H29" stroke="#1C6633"/>
<path d="M195.72 23H170.131" stroke="#1C6633"/>
<path d="M159 3H216C218.761 3 221 5.23858 221 8V52.6617" stroke="#E58D0C" stroke-width="1.5"/>
<path d="M65 95L7.99999 95C5.23857 95 3 92.7614 3 90L3 45" stroke="#E58D0C" stroke-width="1.5"/>
<defs>
<filter id="filter0_d" x="3.8147e-06" y="0" width="223" height="98.5233" filterUnits="userSpaceOnUse" color-interpolation-filters="sRGB">
<feFlood flood-opacity="0" result="BackgroundImageFix"/>
<feColorMatrix in="SourceAlpha" type="matrix" values="0 0 0 0 0 0 0 0 0 0 0 0 0 0 0 0 0 0 127 0"/>
<feOffset/>
<feGaussianBlur stdDeviation="3.5"/>
<feColorMatrix type="matrix" values="0 0 0 0 0 0 0 0 0 0 0 0 0 0 0 0 0 0 0.1 0"/>
<feBlend mode="normal" in2="BackgroundImageFix" result="effect1_dropShadow"/>
<feBlend mode="normal" in="SourceGraphic" in2="effect1_dropShadow" result="shape"/>
</filter>
</defs>
</svg>
