<svg width="841" height="972" viewBox="0 0 841 972" fill="none" xmlns="http://www.w3.org/2000/svg">
<g id="dato modal">
<text id="Los mejores equipos" fill="#1C6633" xml:space="preserve" style="white-space: pre" font-family="Libre Baskerville" font-size="28" letter-spacing="-0.152213px"><tspan x="223.182" y="27.3">Bienvenid@ a la Plataforma </tspan><tspan x="266.823" y="62.3">Dato Ind&#xed;gena Loreto</tspan></text>
<text id="Los mejores equipos_2" fill="#1C6633" xml:space="preserve" style="white-space: pre" font-family="Libre Baskerville" font-size="18" letter-spacing="-0.152213px"><tspan x="277.552" y="218.3">&#xbf;Qu&#xe9; informaci&#xf3;n encontrar&#xe1;s?</tspan></text>
<text id="Los mejores equipos_3" fill="#A2A0A0" xml:space="preserve" style="white-space: pre" font-family="Roboto" font-size="16" letter-spacing="-0.152213px"><tspan x="97.9181" y="124.969">Aqu&#xed; encontrar&#xe1;s informaci&#xf3;n actualizada sobre el avance del COVID-19 en las comunidades&#10;</tspan><tspan x="109.985" y="143.969">nativas de Loreto. Adem&#xe1;s, podr&#xe1;s ubicar las comunidades en un mapa interactivo con la&#10;</tspan><tspan x="205.924" y="162.969">opci&#xf3;n de visualizar informaci&#xf3;n b&#xe1;sica y &#xfa;til sobre cada una.</tspan></text>
<text id="Los mejores equipos_4" fill="#A2A0A0" xml:space="preserve" style="white-space: pre" font-family="Roboto" font-size="16" letter-spacing="-0.152213px"><tspan x="91.4219" y="873.969">Este es un espacio creado de forma colaborativo por ORPIO y la Sociedad Peruana de Derecho&#10;</tspan><tspan x="99.7226" y="892.969">Ambiental (SPDA), con el objetivo de reunir en un solo espacio, informaci&#xf3;n real que permita&#10;</tspan><tspan x="160.546" y="911.969">entender mejor la situaci&#xf3;n actual de los pueblos ind&#xed;genas en el contexto.</tspan></text>
<text id="Los mejores equipos_5" fill="#1C6633" xml:space="preserve" style="white-space: pre" font-family="Roboto" font-size="16" letter-spacing="-0.152213px"><tspan x="316.113" y="960.969">&#xa1;Muchas gracias por su visita!</tspan></text>
<g id="Group 797">
<path id="Subtract" fill-rule="evenodd" clip-rule="evenodd" d="M8.04837 349.81L8.1454 349.319L8.24244 348.829C8.81007 348.941 9.39764 349 9.99999 349H12.5022V349.5V350H9.99999C9.33213 350 8.67957 349.935 8.04837 349.81ZM828.497 350V349.5V349H831C831.602 349 832.19 348.941 832.758 348.829L832.855 349.319L832.952 349.81C832.32 349.935 831.668 350 831 350H828.497ZM836.556 348.316L836.278 347.9L836 347.485C836.982 346.827 837.827 345.982 838.485 345L838.9 345.278L839.316 345.556C838.586 346.647 837.647 347.586 836.556 348.316ZM841 265.406H840.5H840V263C840 262.398 839.941 261.81 839.829 261.242L840.319 261.145L840.81 261.048C840.935 261.68 841 262.332 841 263V265.406ZM839.316 257.444L838.9 257.722L838.485 258C837.827 257.018 836.982 256.173 836 255.515L836.278 255.1L836.556 254.684C837.647 255.414 838.586 256.353 839.316 257.444ZM12.503 253H10C9.33215 253 8.67958 253.065 8.04838 253.19L8.14541 253.681L8.24245 254.171C8.81008 254.059 9.39765 254 10 254H12.503V253.5V253ZM4.44384 254.684L4.722 255.1L5.00016 255.515C4.01827 256.173 3.17268 257.018 2.51531 258L2.09983 257.722L1.68435 257.444C2.41443 256.353 3.35333 255.414 4.44384 254.684ZM0 337.594H0.5H1V340C1 340.602 1.05903 341.19 1.17133 341.758L0.680834 341.855L0.190339 341.952C0.0654691 341.32 0 340.668 0 340V337.594ZM1.68434 345.556L2.09982 345.278L2.51531 345C3.17267 345.982 4.01826 346.827 5.00015 347.485L4.72199 347.9L4.44383 348.316C3.35332 347.586 2.41442 346.647 1.68434 345.556ZM0 332.781H0.5H1V327.969H0.5H0V332.781ZM0 323.156H0.5H1V318.344H0.5H0V323.156ZM0 313.531H0.5H1V308.719H0.5H0V313.531ZM0 303.906H0.5H1V299.094H0.5H0V303.906ZM0 294.281H0.5H1V289.469H0.5H0V294.281ZM0 284.656H0.5H1V279.844H0.5H0V284.656ZM0 275.031H0.5H1V270.219H0.5H0V275.031ZM0 265.406H0.5H1V263C1 262.398 1.05903 261.81 1.17133 261.242L0.680834 261.145L0.190341 261.048C0.0654695 261.68 0 262.332 0 263V265.406ZM17.5091 253V253.5V254H22.5152V253.5V253H17.5091ZM27.5213 253V253.5V254H32.5274V253.5V253H27.5213ZM37.5335 253V253.5V254H42.5396V253.5V253H37.5335ZM47.5457 253V253.5V254H52.5518V253.5V253H47.5457ZM57.5579 253V253.5V254H62.564V253.5V253H57.5579ZM67.5701 253V253.5V254H72.5762V253.5V253H67.5701ZM77.5823 253V253.5V254H82.5884V253.5V253H77.5823ZM87.5945 253V253.5V254H92.6006V253.5V253H87.5945ZM97.6067 253V253.5V254H102.613V253.5V253H97.6067ZM107.619 253V253.5V254H112.625V253.5V253H107.619ZM117.631 253V253.5V254H122.637V253.5V253H117.631ZM127.643 253V253.5V254H132.649V253.5V253H127.643ZM137.655 253V253.5V254H142.662V253.5V253H137.655ZM147.668 253V253.5V254H152.674V253.5V253H147.668ZM157.68 253V253.5V254H162.686V253.5V253H157.68ZM167.692 253V253.5V254H172.698V253.5V253H167.692ZM177.704 253V253.5V254H182.71V253.5V253H177.704ZM187.716 253V253.5V254H192.723V253.5V253H187.716ZM197.729 253V253.5V254H202.735V253.5V253H197.729ZM207.741 253V253.5V254H212.747V253.5V253H207.741ZM217.753 253V253.5V254H222.759V253.5V253H217.753ZM227.765 253V253.5V254H232.771V253.5V253H227.765ZM237.778 253V253.5V254H242.784V253.5V253H237.778ZM247.79 253V253.5V254H252.796V253.5V253H247.79ZM257.802 253V253.5V254H262.808V253.5V253H257.802ZM267.814 253V253.5V254H272.82V253.5V253H267.814ZM277.826 253V253.5V254H282.832V253.5V253H277.826ZM287.839 253V253.5V254H292.845V253.5V253H287.839ZM297.851 253V253.5V254H302.857V253.5V253H297.851ZM307.863 253V253.5V254H312.869V253.5V253H307.863ZM317.875 253V253.5V254H322.881V253.5V253H317.875ZM327.887 253V253.5V254H332.893V253.5V253H327.887ZM337.9 253V253.5V254H342.906V253.5V253H337.9ZM347.912 253V253.5V254H352.918V253.5V253H347.912ZM357.924 253V253.5V254H362.93V253.5V253H357.924ZM367.936 253V253.5V254H372.942V253.5V253H367.936ZM377.948 253V253.5V254H382.955V253.5V253H377.948ZM387.961 253V253.5V254H392.967V253.5V253H387.961ZM397.973 253V253.5V254H402.979V253.5V253H397.973ZM407.985 253V253.5V254H412.991V253.5V253H407.985ZM417.997 253V253.5V254H423.003V253.5V253H417.997ZM428.009 253V253.5V254H433.016V253.5V253H428.009ZM438.022 253V253.5V254H443.028V253.5V253H438.022ZM448.034 253V253.5V254H453.04V253.5V253H448.034ZM458.046 253V253.5V254H463.052V253.5V253H458.046ZM468.058 253V253.5V254H473.064V253.5V253H468.058ZM478.071 253V253.5V254H483.077V253.5V253H478.071ZM488.083 253V253.5V254H493.089V253.5V253H488.083ZM498.095 253V253.5V254H503.101V253.5V253H498.095ZM508.107 253V253.5V254H513.113V253.5V253H508.107ZM518.119 253V253.5V254H523.125V253.5V253H518.119ZM528.132 253V253.5V254H533.138V253.5V253H528.132ZM538.144 253V253.5V254H543.15V253.5V253H538.144ZM548.156 253V253.5V254H553.162V253.5V253H548.156ZM558.168 253V253.5V254H563.174V253.5V253H558.168ZM568.18 253V253.5V254H573.186V253.5V253H568.18ZM578.193 253V253.5V254H583.199V253.5V253H578.193ZM588.205 253V253.5V254H593.211V253.5V253H588.205ZM598.217 253V253.5V254H603.223V253.5V253H598.217ZM608.229 253V253.5V254H613.235V253.5V253H608.229ZM618.241 253V253.5V254H623.247V253.5V253H618.241ZM628.254 253V253.5V254H633.26V253.5V253H628.254ZM638.266 253V253.5V254H643.272V253.5V253H638.266ZM648.278 253V253.5V254H653.284V253.5V253H648.278ZM658.29 253V253.5V254H663.296V253.5V253H658.29ZM668.302 253V253.5V254H673.309V253.5V253H668.302ZM678.315 253V253.5V254H683.321V253.5V253H678.315ZM688.327 253V253.5V254H693.333V253.5V253H688.327ZM698.339 253V253.5V254H703.345V253.5V253H698.339ZM708.351 253V253.5V254H713.357V253.5V253H708.351ZM718.363 253V253.5V254H723.37V253.5V253H718.363ZM728.376 253V253.5V254H733.382V253.5V253H728.376ZM738.388 253V253.5V254H743.394V253.5V253H738.388ZM748.4 253V253.5V254H753.406V253.5V253H748.4ZM758.412 253V253.5V254H763.418V253.5V253H758.412ZM768.424 253V253.5V254H773.431V253.5V253H768.424ZM778.437 253V253.5V254H783.443V253.5V253H778.437ZM788.449 253V253.5V254H793.455V253.5V253H788.449ZM798.461 253V253.5V254H803.467V253.5V253H798.461ZM808.473 253V253.5V254H813.479V253.5V253H808.473ZM818.486 253V253.5V254H823.492V253.5V253H818.486ZM828.498 253V253.5V254H831C831.602 254 832.19 254.059 832.758 254.171L832.855 253.681L832.952 253.19C832.32 253.065 831.668 253 831 253H828.498ZM841 270.219H840.5H840V275.031H840.5H841V270.219ZM841 279.844H840.5H840V284.656H840.5H841V279.844ZM841 289.469H840.5H840V294.281H840.5H841V289.469ZM841 299.094H840.5H840V303.906H840.5H841V299.094ZM841 308.719H840.5H840V313.531H840.5H841V308.719ZM841 318.344H840.5H840V323.156H840.5H841V318.344ZM841 327.969H840.5H840V332.781H840.5H841V327.969ZM841 337.594H840.5H840V340C840 340.602 839.941 341.19 839.829 341.758L840.319 341.855L840.81 341.952C840.935 341.32 841 340.668 841 340V337.594ZM823.491 350V349.5V349H818.485V349.5V350H823.491ZM813.479 350V349.5V349H808.473V349.5V350H813.479ZM803.466 350V349.5V349H798.46V349.5V350H803.466ZM793.454 350V349.5V349H788.448V349.5V350H793.454ZM783.442 350V349.5V349H778.436V349.5V350H783.442ZM773.43 350V349.5V349H768.424V349.5V350H773.43ZM763.418 350V349.5V349H758.412V349.5V350H763.418ZM753.406 350V349.5V349H748.399V349.5V350H753.406ZM743.393 350V349.5V349H738.387V349.5V350H743.393ZM733.381 350V349.5V349H728.375V349.5V350H733.381ZM723.369 350V349.5V349H718.363V349.5V350H723.369ZM713.357 350V349.5V349H708.351V349.5V350H713.357ZM703.345 350V349.5V349H698.338V349.5V350H703.345ZM693.332 350V349.5V349H688.326V349.5V350H693.332ZM683.32 350V349.5V349H678.314V349.5V350H683.32ZM673.308 350V349.5V349H668.302V349.5V350H673.308ZM663.296 350V349.5V349H658.29V349.5V350H663.296ZM653.284 350V349.5V349H648.277V349.5V350H653.284ZM643.271 350V349.5V349H638.265V349.5V350H643.271ZM633.259 350V349.5V349H628.253V349.5V350H633.259ZM623.247 350V349.5V349H618.241V349.5V350H623.247ZM613.235 350V349.5V349H608.229V349.5V350H613.235ZM603.222 350V349.5V349H598.216V349.5V350H603.222ZM593.21 350V349.5V349H588.204V349.5V350H593.21ZM583.198 350V349.5V349H578.192V349.5V350H583.198ZM573.186 350V349.5V349H568.18V349.5V350H573.186ZM563.174 350V349.5V349H558.168V349.5V350H563.174ZM553.161 350V349.5V349H548.155V349.5V350H553.161ZM543.149 350V349.5V349H538.143V349.5V350H543.149ZM533.137 350V349.5V349H528.131V349.5V350H533.137ZM523.125 350V349.5V349H518.119V349.5V350H523.125ZM513.113 350V349.5V349H508.107V349.5V350H513.113ZM503.1 350V349.5V349H498.094V349.5V350H503.1ZM493.088 350V349.5V349H488.082V349.5V350H493.088ZM483.076 350V349.5V349H478.07V349.5V350H483.076ZM473.064 350V349.5V349H468.058V349.5V350H473.064ZM463.052 350V349.5V349H458.045V349.5V350H463.052ZM453.039 350V349.5V349H448.033V349.5V350H453.039ZM443.027 350V349.5V349H438.021V349.5V350H443.027ZM433.015 350V349.5V349H428.009V349.5V350H433.015ZM423.003 350V349.5V349H417.997V349.5V350H423.003ZM412.991 350V349.5V349H407.984V349.5V350H412.991ZM402.978 350V349.5V349H397.972V349.5V350H402.978ZM392.966 350V349.5V349H387.96V349.5V350H392.966ZM382.954 350V349.5V349H377.948V349.5V350H382.954ZM372.942 350V349.5V349H367.936V349.5V350H372.942ZM362.929 350V349.5V349H357.923V349.5V350H362.929ZM352.917 350V349.5V349H347.911V349.5V350H352.917ZM342.905 350V349.5V349H337.899V349.5V350H342.905ZM332.893 350V349.5V349H327.887V349.5V350H332.893ZM322.881 350V349.5V349H317.875V349.5V350H322.881ZM312.868 350V349.5V349H307.862V349.5V350H312.868ZM302.856 350V349.5V349H297.85V349.5V350H302.856ZM292.844 350V349.5V349H287.838V349.5V350H292.844ZM282.832 350V349.5V349H277.826V349.5V350H282.832ZM272.82 350V349.5V349H267.814V349.5V350H272.82ZM262.807 350V349.5V349H257.801V349.5V350H262.807ZM252.795 350V349.5V349H247.789V349.5V350H252.795ZM242.783 350V349.5V349H237.777V349.5V350H242.783ZM232.771 350V349.5V349H227.765V349.5V350H232.771ZM222.759 350V349.5V349H217.753V349.5V350H222.759ZM212.746 350V349.5V349H207.74V349.5V350H212.746ZM202.734 350V349.5V349H197.728V349.5V350H202.734ZM192.722 350V349.5V349H187.716V349.5V350H192.722ZM182.71 350V349.5V349H177.704V349.5V350H182.71ZM172.698 350V349.5V349H167.691V349.5V350H172.698ZM162.685 350V349.5V349H157.679V349.5V350H162.685ZM152.673 350V349.5V349H147.667V349.5V350H152.673ZM142.661 350V349.5V349H137.655V349.5V350H142.661ZM132.649 350V349.5V349H127.643V349.5V350H132.649ZM122.637 350V349.5V349H117.63V349.5V350H122.637ZM112.624 350V349.5V349H107.618V349.5V350H112.624ZM102.612 350V349.5V349H97.606V349.5V350H102.612ZM92.5999 350V349.5V349H87.5938V349.5V350H92.5999ZM82.5877 350V349.5V349H77.5816V349.5V350H82.5877ZM72.5755 350V349.5V349H67.5694V349.5V350H72.5755ZM62.5633 350V349.5V349H57.5572V349.5V350H62.5633ZM52.5511 350V349.5V349H47.5449V349.5V350H52.5511ZM42.5389 350V349.5V349H37.5328V349.5V350H42.5389ZM32.5267 350V349.5V349H27.5206V349.5V350H32.5267ZM22.5144 350V349.5V349H17.5083V349.5V350H22.5144Z" fill="#E58D0C"/>
<text id="Los mejores equipos_6" fill="#A2A0A0" xml:space="preserve" style="white-space: pre" font-family="Roboto" font-size="14" letter-spacing="-0.152213px"><tspan x="286" y="297.785">Podr&#xe1;s ubicar distritos y comunidades en un mapa interactivo que te ofrece </tspan><tspan x="286" y="313.785">rese&#xf1;as con datos b&#xe1;sicos sobre la realidad sociocultural en la regi&#xf3;n Loreto.</tspan></text>
<text id="Los mejores equipos_7" fill="#E58D0C" xml:space="preserve" style="white-space: pre" font-family="Roboto" font-size="16" font-weight="bold" letter-spacing="-0.152213px"><tspan x="60" y="296.969">Mapa de comunidades </tspan><tspan x="60" y="315.969">y distritos</tspan></text>
</g>
<g id="Group 798">
<path id="Subtract_2" fill-rule="evenodd" clip-rule="evenodd" d="M8.04837 465.81L8.1454 465.319L8.24244 464.829C8.81007 464.941 9.39764 465 9.99999 465H12.5022V465.5V466H9.99999C9.33213 466 8.67957 465.935 8.04837 465.81ZM828.497 466V465.5V465H831C831.602 465 832.19 464.941 832.758 464.829L832.855 465.319L832.952 465.81C832.32 465.935 831.668 466 831 466H828.497ZM836.556 464.316L836.278 463.9L836 463.485C836.982 462.827 837.827 461.982 838.485 461L838.9 461.278L839.316 461.556C838.586 462.647 837.647 463.586 836.556 464.316ZM841 381.406H840.5H840V379C840 378.398 839.941 377.81 839.829 377.242L840.319 377.145L840.81 377.048C840.935 377.68 841 378.332 841 379V381.406ZM839.316 373.444L838.9 373.722L838.485 374C837.827 373.018 836.982 372.173 836 371.515L836.278 371.1L836.556 370.684C837.647 371.414 838.586 372.353 839.316 373.444ZM12.503 369H10C9.33215 369 8.67958 369.065 8.04838 369.19L8.14541 369.681L8.24245 370.171C8.81008 370.059 9.39765 370 10 370H12.503V369.5V369ZM4.44384 370.684L4.722 371.1L5.00016 371.515C4.01827 372.173 3.17268 373.018 2.51531 374L2.09983 373.722L1.68435 373.444C2.41443 372.353 3.35333 371.414 4.44384 370.684ZM0 453.594H0.5H1V456C1 456.602 1.05903 457.19 1.17133 457.758L0.680834 457.855L0.190339 457.952C0.0654691 457.32 0 456.668 0 456V453.594ZM1.68434 461.556L2.09982 461.278L2.51531 461C3.17267 461.982 4.01826 462.827 5.00015 463.485L4.72199 463.9L4.44383 464.316C3.35332 463.586 2.41442 462.647 1.68434 461.556ZM0 448.781H0.5H1V443.969H0.5H0V448.781ZM0 439.156H0.5H1V434.344H0.5H0V439.156ZM0 429.531H0.5H1V424.719H0.5H0V429.531ZM0 419.906H0.5H1V415.094H0.5H0V419.906ZM0 410.281H0.5H1V405.469H0.5H0V410.281ZM0 400.656H0.5H1V395.844H0.5H0V400.656ZM0 391.031H0.5H1V386.219H0.5H0V391.031ZM0 381.406H0.5H1V379C1 378.398 1.05903 377.81 1.17133 377.242L0.680834 377.145L0.190341 377.048C0.0654695 377.68 0 378.332 0 379V381.406ZM17.5091 369V369.5V370H22.5152V369.5V369H17.5091ZM27.5213 369V369.5V370H32.5274V369.5V369H27.5213ZM37.5335 369V369.5V370H42.5396V369.5V369H37.5335ZM47.5457 369V369.5V370H52.5518V369.5V369H47.5457ZM57.5579 369V369.5V370H62.564V369.5V369H57.5579ZM67.5701 369V369.5V370H72.5762V369.5V369H67.5701ZM77.5823 369V369.5V370H82.5884V369.5V369H77.5823ZM87.5945 369V369.5V370H92.6006V369.5V369H87.5945ZM97.6067 369V369.5V370H102.613V369.5V369H97.6067ZM107.619 369V369.5V370H112.625V369.5V369H107.619ZM117.631 369V369.5V370H122.637V369.5V369H117.631ZM127.643 369V369.5V370H132.649V369.5V369H127.643ZM137.655 369V369.5V370H142.662V369.5V369H137.655ZM147.668 369V369.5V370H152.674V369.5V369H147.668ZM157.68 369V369.5V370H162.686V369.5V369H157.68ZM167.692 369V369.5V370H172.698V369.5V369H167.692ZM177.704 369V369.5V370H182.71V369.5V369H177.704ZM187.716 369V369.5V370H192.723V369.5V369H187.716ZM197.729 369V369.5V370H202.735V369.5V369H197.729ZM207.741 369V369.5V370H212.747V369.5V369H207.741ZM217.753 369V369.5V370H222.759V369.5V369H217.753ZM227.765 369V369.5V370H232.771V369.5V369H227.765ZM237.778 369V369.5V370H242.784V369.5V369H237.778ZM247.79 369V369.5V370H252.796V369.5V369H247.79ZM257.802 369V369.5V370H262.808V369.5V369H257.802ZM267.814 369V369.5V370H272.82V369.5V369H267.814ZM277.826 369V369.5V370H282.832V369.5V369H277.826ZM287.839 369V369.5V370H292.845V369.5V369H287.839ZM297.851 369V369.5V370H302.857V369.5V369H297.851ZM307.863 369V369.5V370H312.869V369.5V369H307.863ZM317.875 369V369.5V370H322.881V369.5V369H317.875ZM327.887 369V369.5V370H332.893V369.5V369H327.887ZM337.9 369V369.5V370H342.906V369.5V369H337.9ZM347.912 369V369.5V370H352.918V369.5V369H347.912ZM357.924 369V369.5V370H362.93V369.5V369H357.924ZM367.936 369V369.5V370H372.942V369.5V369H367.936ZM377.948 369V369.5V370H382.955V369.5V369H377.948ZM387.961 369V369.5V370H392.967V369.5V369H387.961ZM397.973 369V369.5V370H402.979V369.5V369H397.973ZM407.985 369V369.5V370H412.991V369.5V369H407.985ZM417.997 369V369.5V370H423.003V369.5V369H417.997ZM428.009 369V369.5V370H433.016V369.5V369H428.009ZM438.022 369V369.5V370H443.028V369.5V369H438.022ZM448.034 369V369.5V370H453.04V369.5V369H448.034ZM458.046 369V369.5V370H463.052V369.5V369H458.046ZM468.058 369V369.5V370H473.064V369.5V369H468.058ZM478.071 369V369.5V370H483.077V369.5V369H478.071ZM488.083 369V369.5V370H493.089V369.5V369H488.083ZM498.095 369V369.5V370H503.101V369.5V369H498.095ZM508.107 369V369.5V370H513.113V369.5V369H508.107ZM518.119 369V369.5V370H523.125V369.5V369H518.119ZM528.132 369V369.5V370H533.138V369.5V369H528.132ZM538.144 369V369.5V370H543.15V369.5V369H538.144ZM548.156 369V369.5V370H553.162V369.5V369H548.156ZM558.168 369V369.5V370H563.174V369.5V369H558.168ZM568.18 369V369.5V370H573.186V369.5V369H568.18ZM578.193 369V369.5V370H583.199V369.5V369H578.193ZM588.205 369V369.5V370H593.211V369.5V369H588.205ZM598.217 369V369.5V370H603.223V369.5V369H598.217ZM608.229 369V369.5V370H613.235V369.5V369H608.229ZM618.241 369V369.5V370H623.247V369.5V369H618.241ZM628.254 369V369.5V370H633.26V369.5V369H628.254ZM638.266 369V369.5V370H643.272V369.5V369H638.266ZM648.278 369V369.5V370H653.284V369.5V369H648.278ZM658.29 369V369.5V370H663.296V369.5V369H658.29ZM668.302 369V369.5V370H673.309V369.5V369H668.302ZM678.315 369V369.5V370H683.321V369.5V369H678.315ZM688.327 369V369.5V370H693.333V369.5V369H688.327ZM698.339 369V369.5V370H703.345V369.5V369H698.339ZM708.351 369V369.5V370H713.357V369.5V369H708.351ZM718.363 369V369.5V370H723.37V369.5V369H718.363ZM728.376 369V369.5V370H733.382V369.5V369H728.376ZM738.388 369V369.5V370H743.394V369.5V369H738.388ZM748.4 369V369.5V370H753.406V369.5V369H748.4ZM758.412 369V369.5V370H763.418V369.5V369H758.412ZM768.424 369V369.5V370H773.431V369.5V369H768.424ZM778.437 369V369.5V370H783.443V369.5V369H778.437ZM788.449 369V369.5V370H793.455V369.5V369H788.449ZM798.461 369V369.5V370H803.467V369.5V369H798.461ZM808.473 369V369.5V370H813.479V369.5V369H808.473ZM818.486 369V369.5V370H823.492V369.5V369H818.486ZM828.498 369V369.5V370H831C831.602 370 832.19 370.059 832.758 370.171L832.855 369.681L832.952 369.19C832.32 369.065 831.668 369 831 369H828.498ZM841 386.219H840.5H840V391.031H840.5H841V386.219ZM841 395.844H840.5H840V400.656H840.5H841V395.844ZM841 405.469H840.5H840V410.281H840.5H841V405.469ZM841 415.094H840.5H840V419.906H840.5H841V415.094ZM841 424.719H840.5H840V429.531H840.5H841V424.719ZM841 434.344H840.5H840V439.156H840.5H841V434.344ZM841 443.969H840.5H840V448.781H840.5H841V443.969ZM841 453.594H840.5H840V456C840 456.602 839.941 457.19 839.829 457.758L840.319 457.855L840.81 457.952C840.935 457.32 841 456.668 841 456V453.594ZM823.491 466V465.5V465H818.485V465.5V466H823.491ZM813.479 466V465.5V465H808.473V465.5V466H813.479ZM803.466 466V465.5V465H798.46V465.5V466H803.466ZM793.454 466V465.5V465H788.448V465.5V466H793.454ZM783.442 466V465.5V465H778.436V465.5V466H783.442ZM773.43 466V465.5V465H768.424V465.5V466H773.43ZM763.418 466V465.5V465H758.412V465.5V466H763.418ZM753.406 466V465.5V465H748.399V465.5V466H753.406ZM743.393 466V465.5V465H738.387V465.5V466H743.393ZM733.381 466V465.5V465H728.375V465.5V466H733.381ZM723.369 466V465.5V465H718.363V465.5V466H723.369ZM713.357 466V465.5V465H708.351V465.5V466H713.357ZM703.345 466V465.5V465H698.338V465.5V466H703.345ZM693.332 466V465.5V465H688.326V465.5V466H693.332ZM683.32 466V465.5V465H678.314V465.5V466H683.32ZM673.308 466V465.5V465H668.302V465.5V466H673.308ZM663.296 466V465.5V465H658.29V465.5V466H663.296ZM653.284 466V465.5V465H648.277V465.5V466H653.284ZM643.271 466V465.5V465H638.265V465.5V466H643.271ZM633.259 466V465.5V465H628.253V465.5V466H633.259ZM623.247 466V465.5V465H618.241V465.5V466H623.247ZM613.235 466V465.5V465H608.229V465.5V466H613.235ZM603.222 466V465.5V465H598.216V465.5V466H603.222ZM593.21 466V465.5V465H588.204V465.5V466H593.21ZM583.198 466V465.5V465H578.192V465.5V466H583.198ZM573.186 466V465.5V465H568.18V465.5V466H573.186ZM563.174 466V465.5V465H558.168V465.5V466H563.174ZM553.161 466V465.5V465H548.155V465.5V466H553.161ZM543.149 466V465.5V465H538.143V465.5V466H543.149ZM533.137 466V465.5V465H528.131V465.5V466H533.137ZM523.125 466V465.5V465H518.119V465.5V466H523.125ZM513.113 466V465.5V465H508.107V465.5V466H513.113ZM503.1 466V465.5V465H498.094V465.5V466H503.1ZM493.088 466V465.5V465H488.082V465.5V466H493.088ZM483.076 466V465.5V465H478.07V465.5V466H483.076ZM473.064 466V465.5V465H468.058V465.5V466H473.064ZM463.052 466V465.5V465H458.045V465.5V466H463.052ZM453.039 466V465.5V465H448.033V465.5V466H453.039ZM443.027 466V465.5V465H438.021V465.5V466H443.027ZM433.015 466V465.5V465H428.009V465.5V466H433.015ZM423.003 466V465.5V465H417.997V465.5V466H423.003ZM412.991 466V465.5V465H407.984V465.5V466H412.991ZM402.978 466V465.5V465H397.972V465.5V466H402.978ZM392.966 466V465.5V465H387.96V465.5V466H392.966ZM382.954 466V465.5V465H377.948V465.5V466H382.954ZM372.942 466V465.5V465H367.936V465.5V466H372.942ZM362.929 466V465.5V465H357.923V465.5V466H362.929ZM352.917 466V465.5V465H347.911V465.5V466H352.917ZM342.905 466V465.5V465H337.899V465.5V466H342.905ZM332.893 466V465.5V465H327.887V465.5V466H332.893ZM322.881 466V465.5V465H317.875V465.5V466H322.881ZM312.868 466V465.5V465H307.862V465.5V466H312.868ZM302.856 466V465.5V465H297.85V465.5V466H302.856ZM292.844 466V465.5V465H287.838V465.5V466H292.844ZM282.832 466V465.5V465H277.826V465.5V466H282.832ZM272.82 466V465.5V465H267.814V465.5V466H272.82ZM262.807 466V465.5V465H257.801V465.5V466H262.807ZM252.795 466V465.5V465H247.789V465.5V466H252.795ZM242.783 466V465.5V465H237.777V465.5V466H242.783ZM232.771 466V465.5V465H227.765V465.5V466H232.771ZM222.759 466V465.5V465H217.753V465.5V466H222.759ZM212.746 466V465.5V465H207.74V465.5V466H212.746ZM202.734 466V465.5V465H197.728V465.5V466H202.734ZM192.722 466V465.5V465H187.716V465.5V466H192.722ZM182.71 466V465.5V465H177.704V465.5V466H182.71ZM172.698 466V465.5V465H167.691V465.5V466H172.698ZM162.685 466V465.5V465H157.679V465.5V466H162.685ZM152.673 466V465.5V465H147.667V465.5V466H152.673ZM142.661 466V465.5V465H137.655V465.5V466H142.661ZM132.649 466V465.5V465H127.643V465.5V466H132.649ZM122.637 466V465.5V465H117.63V465.5V466H122.637ZM112.624 466V465.5V465H107.618V465.5V466H112.624ZM102.612 466V465.5V465H97.606V465.5V466H102.612ZM92.5999 466V465.5V465H87.5938V465.5V466H92.5999ZM82.5877 466V465.5V465H77.5816V465.5V466H82.5877ZM72.5755 466V465.5V465H67.5694V465.5V466H72.5755ZM62.5633 466V465.5V465H57.5572V465.5V466H62.5633ZM52.5511 466V465.5V465H47.5449V465.5V466H52.5511ZM42.5389 466V465.5V465H37.5328V465.5V466H42.5389ZM32.5267 466V465.5V465H27.5206V465.5V466H32.5267ZM22.5144 466V465.5V465H17.5083V465.5V466H22.5144Z" fill="#E58D0C"/>
<text id="Los mejores equipos_8" fill="#A2A0A0" xml:space="preserve" style="white-space: pre" font-family="Roboto" font-size="14" letter-spacing="-0.152213px"><tspan x="286" y="404.785">Tambi&#xe9;n podr&#xe1;s visualizar &#xc1;reas Naturales Protegidas (ANP) y propuestas de </tspan><tspan x="286" y="420.785">Reservas Ind&#xed;genas. Esto te permitir&#xe1; identificar que comunidades se encuentran </tspan><tspan x="286" y="436.785">aleda&#xf1;as a espacios con alg&#xfa;n tipo de protecci&#xf3;n. </tspan></text>
<g id="enlace">
<text fill="#A2A0A0" xml:space="preserve" style="white-space: pre" font-family="Roboto" font-size="14" letter-spacing="-0.152213px"><tspan x="592" y="435.785"> </tspan></text>
<text fill="#1C6633" xml:space="preserve" style="white-space: pre" font-family="Roboto" font-size="14" font-weight="bold" letter-spacing="-0.152213px"><tspan x="771.611" y="435.785">.</tspan></text>
<text fill="#1C6633" xml:space="preserve" style="white-space: pre" font-family="Roboto" font-size="14" font-weight="bold" letter-spacing="-0.152213px" text-decoration="underline"><tspan x="595.32" y="435.785">Link para mayor informaci&#xf3;n</tspan></text>
</g>
<text id="Los mejores equipos_9" fill="#E58D0C" xml:space="preserve" style="white-space: pre" font-family="Roboto" font-size="16" font-weight="bold" letter-spacing="-0.152213px"><tspan x="60" y="422.969">Espacios protegidos</tspan></text>
</g>
<g id="Group 799">
<path id="Subtract_3" fill-rule="evenodd" clip-rule="evenodd" d="M8.04836 814.81L8.1454 814.319L8.24244 813.829C8.81007 813.941 9.39764 814 9.99999 814H12.5022V814.5V815H9.99999C9.33213 815 8.67957 814.935 8.04836 814.81ZM828.497 815V814.5V814H831C831.602 814 832.19 813.941 832.758 813.829L832.855 814.319L832.952 814.81C832.32 814.935 831.668 815 831 815H828.497ZM836.556 813.316L836.278 812.9L836 812.485C836.982 811.827 837.827 810.982 838.485 810L838.9 810.278L839.316 810.556C838.586 811.647 837.647 812.586 836.556 813.316ZM841 497.5H840.5H840V495C840 494.398 839.941 493.81 839.829 493.242L840.319 493.145L840.81 493.048C840.935 493.68 841 494.332 841 495V497.5ZM839.316 489.444L838.9 489.722L838.485 490C837.827 489.018 836.982 488.173 836 487.515L836.278 487.1L836.556 486.684C837.647 487.414 838.586 488.353 839.316 489.444ZM12.503 485H10C9.33215 485 8.67958 485.065 8.04838 485.19L8.14542 485.681L8.24245 486.171C8.81008 486.059 9.39765 486 10 486H12.503V485.5V485ZM4.44385 486.684L4.722 487.1L5.00016 487.515C4.01827 488.173 3.17268 489.018 2.51531 490L2.09983 489.722L1.68435 489.444C2.41443 488.353 3.35333 487.414 4.44385 486.684ZM0 802.5H0.5H1V805C1 805.602 1.05903 806.19 1.17133 806.758L0.680834 806.855L0.190338 806.952C0.0654687 806.32 0 805.668 0 805V802.5ZM1.68434 810.556L2.09982 810.278L2.51531 810C3.17267 810.982 4.01826 811.827 5.00015 812.485L4.72199 812.9L4.44383 813.316C3.35332 812.586 2.41442 811.647 1.68434 810.556ZM0 797.5H0.5H1V792.5H0.5H0V797.5ZM0 787.5H0.5H1V782.5H0.5H0V787.5ZM0 777.5H0.5H1V772.5H0.5H0V777.5ZM0 767.5H0.5H1V762.5H0.5H0V767.5ZM0 757.5H0.5H1V752.5H0.5H0V757.5ZM0 747.5H0.5H1V742.5H0.5H0V747.5ZM0 737.5H0.5H1V732.5H0.5H0V737.5ZM0 727.5H0.5H1V722.5H0.5H0V727.5ZM0 717.5H0.5H1V712.5H0.5H0V717.5ZM0 707.5H0.5H1V702.5H0.5H0V707.5ZM0 697.5H0.5H1V692.5H0.5H0V697.5ZM0 687.5H0.5H1V682.5H0.5H0V687.5ZM0 677.5H0.5H1V672.5H0.5H0V677.5ZM0 667.5H0.5H1V662.5H0.5H0V667.5ZM0 657.5H0.5H1V652.5H0.5H0V657.5ZM0 647.5H0.5H1V642.5H0.5H0V647.5ZM0 637.5H0.5H1V632.5H0.5H0V637.5ZM0 627.5H0.5H1V622.5H0.5H0V627.5ZM0 617.5H0.5H1V612.5H0.5H0V617.5ZM0 607.5H0.5H1V602.5H0.5H0V607.5ZM0 597.5H0.5H1V592.5H0.5H0V597.5ZM0 587.5H0.5H1V582.5H0.5H0V587.5ZM0 577.5H0.5H1V572.5H0.5H0V577.5ZM0 567.5H0.5H1V562.5H0.5H0V567.5ZM0 557.5H0.5H1V552.5H0.5H0V557.5ZM0 547.5H0.5H1V542.5H0.5H0V547.5ZM0 537.5H0.5H1V532.5H0.5H0V537.5ZM0 527.5H0.5H1V522.5H0.5H0V527.5ZM0 517.5H0.5H1V512.5H0.5H0V517.5ZM0 507.5H0.5H1V502.5H0.5H0V507.5ZM0 497.5H0.5H1V495C1 494.398 1.05903 493.81 1.17133 493.242L0.680834 493.145L0.19034 493.048C0.0654694 493.68 0 494.332 0 495V497.5ZM17.5091 485V485.5V486H22.5152V485.5V485H17.5091ZM27.5213 485V485.5V486H32.5274V485.5V485H27.5213ZM37.5335 485V485.5V486H42.5396V485.5V485H37.5335ZM47.5457 485V485.5V486H52.5518V485.5V485H47.5457ZM57.5579 485V485.5V486H62.564V485.5V485H57.5579ZM67.5701 485V485.5V486H72.5762V485.5V485H67.5701ZM77.5823 485V485.5V486H82.5884V485.5V485H77.5823ZM87.5945 485V485.5V486H92.6006V485.5V485H87.5945ZM97.6067 485V485.5V486H102.613V485.5V485H97.6067ZM107.619 485V485.5V486H112.625V485.5V485H107.619ZM117.631 485V485.5V486H122.637V485.5V485H117.631ZM127.643 485V485.5V486H132.649V485.5V485H127.643ZM137.655 485V485.5V486H142.662V485.5V485H137.655ZM147.668 485V485.5V486H152.674V485.5V485H147.668ZM157.68 485V485.5V486H162.686V485.5V485H157.68ZM167.692 485V485.5V486H172.698V485.5V485H167.692ZM177.704 485V485.5V486H182.71V485.5V485H177.704ZM187.716 485V485.5V486H192.723V485.5V485H187.716ZM197.729 485V485.5V486H202.735V485.5V485H197.729ZM207.741 485V485.5V486H212.747V485.5V485H207.741ZM217.753 485V485.5V486H222.759V485.5V485H217.753ZM227.765 485V485.5V486H232.771V485.5V485H227.765ZM237.778 485V485.5V486H242.784V485.5V485H237.778ZM247.79 485V485.5V486H252.796V485.5V485H247.79ZM257.802 485V485.5V486H262.808V485.5V485H257.802ZM267.814 485V485.5V486H272.82V485.5V485H267.814ZM277.826 485V485.5V486H282.832V485.5V485H277.826ZM287.839 485V485.5V486H292.845V485.5V485H287.839ZM297.851 485V485.5V486H302.857V485.5V485H297.851ZM307.863 485V485.5V486H312.869V485.5V485H307.863ZM317.875 485V485.5V486H322.881V485.5V485H317.875ZM327.887 485V485.5V486H332.893V485.5V485H327.887ZM337.9 485V485.5V486H342.906V485.5V485H337.9ZM347.912 485V485.5V486H352.918V485.5V485H347.912ZM357.924 485V485.5V486H362.93V485.5V485H357.924ZM367.936 485V485.5V486H372.942V485.5V485H367.936ZM377.948 485V485.5V486H382.955V485.5V485H377.948ZM387.961 485V485.5V486H392.967V485.5V485H387.961ZM397.973 485V485.5V486H402.979V485.5V485H397.973ZM407.985 485V485.5V486H412.991V485.5V485H407.985ZM417.997 485V485.5V486H423.003V485.5V485H417.997ZM428.009 485V485.5V486H433.016V485.5V485H428.009ZM438.022 485V485.5V486H443.028V485.5V485H438.022ZM448.034 485V485.5V486H453.04V485.5V485H448.034ZM458.046 485V485.5V486H463.052V485.5V485H458.046ZM468.058 485V485.5V486H473.064V485.5V485H468.058ZM478.071 485V485.5V486H483.077V485.5V485H478.071ZM488.083 485V485.5V486H493.089V485.5V485H488.083ZM498.095 485V485.5V486H503.101V485.5V485H498.095ZM508.107 485V485.5V486H513.113V485.5V485H508.107ZM518.119 485V485.5V486H523.125V485.5V485H518.119ZM528.132 485V485.5V486H533.138V485.5V485H528.132ZM538.144 485V485.5V486H543.15V485.5V485H538.144ZM548.156 485V485.5V486H553.162V485.5V485H548.156ZM558.168 485V485.5V486H563.174V485.5V485H558.168ZM568.18 485V485.5V486H573.186V485.5V485H568.18ZM578.193 485V485.5V486H583.199V485.5V485H578.193ZM588.205 485V485.5V486H593.211V485.5V485H588.205ZM598.217 485V485.5V486H603.223V485.5V485H598.217ZM608.229 485V485.5V486H613.235V485.5V485H608.229ZM618.241 485V485.5V486H623.247V485.5V485H618.241ZM628.254 485V485.5V486H633.26V485.5V485H628.254ZM638.266 485V485.5V486H643.272V485.5V485H638.266ZM648.278 485V485.5V486H653.284V485.5V485H648.278ZM658.29 485V485.5V486H663.296V485.5V485H658.29ZM668.302 485V485.5V486H673.309V485.5V485H668.302ZM678.315 485V485.5V486H683.321V485.5V485H678.315ZM688.327 485V485.5V486H693.333V485.5V485H688.327ZM698.339 485V485.5V486H703.345V485.5V485H698.339ZM708.351 485V485.5V486H713.357V485.5V485H708.351ZM718.363 485V485.5V486H723.37V485.5V485H718.363ZM728.376 485V485.5V486H733.382V485.5V485H728.376ZM738.388 485V485.5V486H743.394V485.5V485H738.388ZM748.4 485V485.5V486H753.406V485.5V485H748.4ZM758.412 485V485.5V486H763.418V485.5V485H758.412ZM768.424 485V485.5V486H773.431V485.5V485H768.424ZM778.437 485V485.5V486H783.443V485.5V485H778.437ZM788.449 485V485.5V486H793.455V485.5V485H788.449ZM798.461 485V485.5V486H803.467V485.5V485H798.461ZM808.473 485V485.5V486H813.479V485.5V485H808.473ZM818.486 485V485.5V486H823.492V485.5V485H818.486ZM828.498 485V485.5V486H831C831.602 486 832.19 486.059 832.758 486.171L832.855 485.681L832.952 485.19C832.32 485.065 831.668 485 831 485H828.498ZM841 502.5H840.5H840V507.5H840.5H841V502.5ZM841 512.5H840.5H840V517.5H840.5H841V512.5ZM841 522.5H840.5H840V527.5H840.5H841V522.5ZM841 532.5H840.5H840V537.5H840.5H841V532.5ZM841 542.5H840.5H840V547.5H840.5H841V542.5ZM841 552.5H840.5H840V557.5H840.5H841V552.5ZM841 562.5H840.5H840V567.5H840.5H841V562.5ZM841 572.5H840.5H840V577.5H840.5H841V572.5ZM841 582.5H840.5H840V587.5H840.5H841V582.5ZM841 592.5H840.5H840V597.5H840.5H841V592.5ZM841 602.5H840.5H840V607.5H840.5H841V602.5ZM841 612.5H840.5H840V617.5H840.5H841V612.5ZM841 622.5H840.5H840V627.5H840.5H841V622.5ZM841 632.5H840.5H840V637.5H840.5H841V632.5ZM841 642.5H840.5H840V647.5H840.5H841V642.5ZM841 652.5H840.5H840V657.5H840.5H841V652.5ZM841 662.5H840.5H840V667.5H840.5H841V662.5ZM841 672.5H840.5H840V677.5H840.5H841V672.5ZM841 682.5H840.5H840V687.5H840.5H841V682.5ZM841 692.5H840.5H840V697.5H840.5H841V692.5ZM841 702.5H840.5H840V707.5H840.5H841V702.5ZM841 712.5H840.5H840V717.5H840.5H841V712.5ZM841 722.5H840.5H840V727.5H840.5H841V722.5ZM841 732.5H840.5H840V737.5H840.5H841V732.5ZM841 742.5H840.5H840V747.5H840.5H841V742.5ZM841 752.5H840.5H840V757.5H840.5H841V752.5ZM841 762.5H840.5H840V767.5H840.5H841V762.5ZM841 772.5H840.5H840V777.5H840.5H841V772.5ZM841 782.5H840.5H840V787.5H840.5H841V782.5ZM841 792.5H840.5H840V797.5H840.5H841V792.5ZM841 802.5H840.5H840V805C840 805.602 839.941 806.19 839.829 806.758L840.319 806.855L840.81 806.952C840.935 806.32 841 805.668 841 805V802.5ZM823.491 815V814.5V814H818.485V814.5V815H823.491ZM813.479 815V814.5V814H808.473V814.5V815H813.479ZM803.466 815V814.5V814H798.46V814.5V815H803.466ZM793.454 815V814.5V814H788.448V814.5V815H793.454ZM783.442 815V814.5V814H778.436V814.5V815H783.442ZM773.43 815V814.5V814H768.424V814.5V815H773.43ZM763.418 815V814.5V814H758.412V814.5V815H763.418ZM753.406 815V814.5V814H748.399V814.5V815H753.406ZM743.393 815V814.5V814H738.387V814.5V815H743.393ZM733.381 815V814.5V814H728.375V814.5V815H733.381ZM723.369 815V814.5V814H718.363V814.5V815H723.369ZM713.357 815V814.5V814H708.351V814.5V815H713.357ZM703.345 815V814.5V814H698.338V814.5V815H703.345ZM693.332 815V814.5V814H688.326V814.5V815H693.332ZM683.32 815V814.5V814H678.314V814.5V815H683.32ZM673.308 815V814.5V814H668.302V814.5V815H673.308ZM663.296 815V814.5V814H658.29V814.5V815H663.296ZM653.284 815V814.5V814H648.277V814.5V815H653.284ZM643.271 815V814.5V814H638.265V814.5V815H643.271ZM633.259 815V814.5V814H628.253V814.5V815H633.259ZM623.247 815V814.5V814H618.241V814.5V815H623.247ZM613.235 815V814.5V814H608.229V814.5V815H613.235ZM603.222 815V814.5V814H598.216V814.5V815H603.222ZM593.21 815V814.5V814H588.204V814.5V815H593.21ZM583.198 815V814.5V814H578.192V814.5V815H583.198ZM573.186 815V814.5V814H568.18V814.5V815H573.186ZM563.174 815V814.5V814H558.168V814.5V815H563.174ZM553.161 815V814.5V814H548.155V814.5V815H553.161ZM543.149 815V814.5V814H538.143V814.5V815H543.149ZM533.137 815V814.5V814H528.131V814.5V815H533.137ZM523.125 815V814.5V814H518.119V814.5V815H523.125ZM513.113 815V814.5V814H508.107V814.5V815H513.113ZM503.1 815V814.5V814H498.094V814.5V815H503.1ZM493.088 815V814.5V814H488.082V814.5V815H493.088ZM483.076 815V814.5V814H478.07V814.5V815H483.076ZM473.064 815V814.5V814H468.058V814.5V815H473.064ZM463.052 815V814.5V814H458.045V814.5V815H463.052ZM453.039 815V814.5V814H448.033V814.5V815H453.039ZM443.027 815V814.5V814H438.021V814.5V815H443.027ZM433.015 815V814.5V814H428.009V814.5V815H433.015ZM423.003 815V814.5V814H417.997V814.5V815H423.003ZM412.991 815V814.5V814H407.984V814.5V815H412.991ZM402.978 815V814.5V814H397.972V814.5V815H402.978ZM392.966 815V814.5V814H387.96V814.5V815H392.966ZM382.954 815V814.5V814H377.948V814.5V815H382.954ZM372.942 815V814.5V814H367.936V814.5V815H372.942ZM362.929 815V814.5V814H357.923V814.5V815H362.929ZM352.917 815V814.5V814H347.911V814.5V815H352.917ZM342.905 815V814.5V814H337.899V814.5V815H342.905ZM332.893 815V814.5V814H327.887V814.5V815H332.893ZM322.881 815V814.5V814H317.875V814.5V815H322.881ZM312.868 815V814.5V814H307.862V814.5V815H312.868ZM302.856 815V814.5V814H297.85V814.5V815H302.856ZM292.844 815V814.5V814H287.838V814.5V815H292.844ZM282.832 815V814.5V814H277.826V814.5V815H282.832ZM272.82 815V814.5V814H267.814V814.5V815H272.82ZM262.807 815V814.5V814H257.801V814.5V815H262.807ZM252.795 815V814.5V814H247.789V814.5V815H252.795ZM242.783 815V814.5V814H237.777V814.5V815H242.783ZM232.771 815V814.5V814H227.765V814.5V815H232.771ZM222.759 815V814.5V814H217.753V814.5V815H222.759ZM212.746 815V814.5V814H207.74V814.5V815H212.746ZM202.734 815V814.5V814H197.728V814.5V815H202.734ZM192.722 815V814.5V814H187.716V814.5V815H192.722ZM182.71 815V814.5V814H177.704V814.5V815H182.71ZM172.698 815V814.5V814H167.691V814.5V815H172.698ZM162.685 815V814.5V814H157.679V814.5V815H162.685ZM152.673 815V814.5V814H147.667V814.5V815H152.673ZM142.661 815V814.5V814H137.655V814.5V815H142.661ZM132.649 815V814.5V814H127.643V814.5V815H132.649ZM122.637 815V814.5V814H117.63V814.5V815H122.637ZM112.624 815V814.5V814H107.618V814.5V815H112.624ZM102.612 815V814.5V814H97.606V814.5V815H102.612ZM92.5999 815V814.5V814H87.5938V814.5V815H92.5999ZM82.5877 815V814.5V814H77.5816V814.5V815H82.5877ZM72.5755 815V814.5V814H67.5694V814.5V815H72.5755ZM62.5633 815V814.5V814H57.5572V814.5V815H62.5633ZM52.5511 815V814.5V814H47.5449V814.5V815H52.5511ZM42.5389 815V814.5V814H37.5328V814.5V815H42.5389ZM32.5267 815V814.5V814H27.5206V814.5V815H32.5267ZM22.5144 815V814.5V814H17.5083V814.5V815H22.5144Z" fill="#E58D0C"/>
<text id="Los mejores equipos_10" fill="#A2A0A0" xml:space="preserve" style="white-space: pre" font-family="Roboto" font-size="14" letter-spacing="-0.152213px"><tspan x="286" y="520.785">En este apartado podr&#xe1;s ver c&#xf3;mo avanza el COVID-19 en Loreto. Adem&#xe1;s, </tspan><tspan x="286" y="536.785">podr&#xe1;s diferenciar el avance en territorios ocupados por poblaciones ind&#xed;genas, </tspan><tspan x="286" y="552.785">desde distintas fuentes. Por ello, encontrar&#xe1;s los siguientes apartados:</tspan></text>
<g id="Group 801">
<text id="Los mejores equipos_11" fill="#A2A0A0" xml:space="preserve" style="white-space: pre" font-family="Roboto" font-size="14" letter-spacing="-0.152213px"><tspan x="317" y="607.785">Cifras de casos COVID-19 en la poblaci&#xf3;n en general a nivel de la regi&#xf3;n Loreto, </tspan><tspan x="317" y="623.785">seg&#xfa;n los reportes de la Direcci&#xf3;n Regional de Salud (DIRESA).</tspan></text>
<text id="Los mejores equipos_12" fill="#1C6633" xml:space="preserve" style="white-space: pre" font-family="Roboto" font-size="14" letter-spacing="-0.152213px"><tspan x="316" y="585.785">Reporte Loreto DIRESA</tspan></text>
<g id="Group 800">
<circle id="Ellipse 8" cx="297" cy="581" r="11" fill="#E58D0C"/>
<text id="Los mejores equipos_13" fill="white" xml:space="preserve" style="white-space: pre" font-family="Roboto" font-size="14" font-weight="bold" letter-spacing="-0.152213px"><tspan x="293" y="585.785">1</tspan></text>
</g>
</g>
<g id="Group 802">
<text id="Los mejores equipos_14" fill="#A2A0A0" xml:space="preserve" style="white-space: pre" font-family="Roboto" font-size="14" letter-spacing="-0.152213px"><tspan x="317" y="681.785">Cifras de casos COVID-19 de poblaci&#xf3;n ind&#xed;gena a nivel de la regi&#xf3;n Loreto, </tspan><tspan x="317" y="697.785">seg&#xfa;n los reportes de DIRESA.</tspan></text>
<text id="Los mejores equipos_15" fill="#A2A0A0" xml:space="preserve" style="white-space: pre" font-family="Roboto" font-size="14" letter-spacing="-0.152213px"><tspan x="317" y="755.785">Cifras de casos sospechosos COVID-19 en la poblaci&#xf3;n ind&#xed;gena a nivel de la </tspan><tspan x="317" y="771.785">regi&#xf3;n Loreto, seg&#xfa;n los reportes que l&#xed;deres comunales y federaciones brinda </tspan><tspan x="317" y="787.785">la Organizaci&#xf3;n Regional de los Pueblos Ind&#xed;genas del Oriente (ORPIO).</tspan></text>
<text id="Los mejores equipos_16" fill="#1C6633" xml:space="preserve" style="white-space: pre" font-family="Roboto" font-size="14" letter-spacing="-0.152213px"><tspan x="316" y="659.785">Reporte Ind&#xed;gena-DIRESA</tspan></text>
<text id="Los mejores equipos_17" fill="#1C6633" xml:space="preserve" style="white-space: pre" font-family="Roboto" font-size="14" letter-spacing="-0.152213px"><tspan x="316" y="733.785">Reporte Ind&#xed;gena-ORPIO</tspan></text>
<g id="Group 800_2">
<circle id="Ellipse 8_2" cx="297" cy="655" r="11" fill="#E58D0C"/>
<text id="Los mejores equipos_18" fill="white" xml:space="preserve" style="white-space: pre" font-family="Roboto" font-size="14" font-weight="bold" letter-spacing="-0.152213px"><tspan x="293" y="659.785">2</tspan></text>
</g>
<g id="Group 801_2">
<circle id="Ellipse 8_3" cx="297" cy="729" r="11" fill="#E58D0C"/>
<text id="Los mejores equipos_19" fill="white" xml:space="preserve" style="white-space: pre" font-family="Roboto" font-size="14" font-weight="bold" letter-spacing="-0.152213px"><tspan x="293" y="733.785">3</tspan></text>
</g>
</g>
<text id="Los mejores equipos_20" fill="#E58D0C" xml:space="preserve" style="white-space: pre" font-family="Roboto" font-size="16" font-weight="bold" letter-spacing="-0.152213px"><tspan x="60" y="529.969">L&#xed;nea de tiempo </tspan><tspan x="60" y="548.969">COVID-19</tspan></text>
</g>
<g id="Group 792">
<path id="Vector 16" d="M208.214 20.3572H178" stroke="#1C6633" stroke-width="2"/>
<path id="Vector 18" d="M664 20.3572H633.786" stroke="#1C6633" stroke-width="2"/>
</g>
</g>
</svg>
